<svg width="28" height="28" viewBox="0 0 28 28" fill="none" xmlns="http://www.w3.org/2000/svg">
<path fill-rule="evenodd" clip-rule="evenodd" d="M11.6667 17.208C8.284 17.208 5.54175 19.9503 5.54175 23.333V24.4997C5.54175 24.9829 5.15 25.3747 4.66675 25.3747C4.1835 25.3747 3.79175 24.9829 3.79175 24.4997V23.333C3.79175 18.9838 7.3175 15.458 11.6667 15.458H16.3334C20.6826 15.458 24.2084 18.9838 24.2084 23.333V24.4997C24.2084 24.9829 23.8167 25.3747 23.3334 25.3747C22.8502 25.3747 22.4584 24.9829 22.4584 24.4997V23.333C22.4584 19.9503 19.7161 17.208 16.3334 17.208H11.6667Z" fill="#1B1B1B"/>
<path fill-rule="evenodd" clip-rule="evenodd" d="M14.0002 4.37476C11.9061 4.37476 10.2085 6.07234 10.2085 8.16642C10.2085 10.2605 11.9061 11.9581 14.0002 11.9581C16.0942 11.9581 17.7918 10.2605 17.7918 8.16642C17.7918 6.07235 16.0942 4.37476 14.0002 4.37476ZM8.4585 8.16642C8.4585 5.10584 10.9396 2.62476 14.0002 2.62476C17.0607 2.62476 19.5418 5.10584 19.5418 8.16642C19.5418 11.227 17.0607 13.7081 14.0002 13.7081C10.9396 13.7081 8.4585 11.227 8.4585 8.16642Z" fill="#1B1B1B"/>
</svg>
