<svg width="14" height="14" viewBox="0 0 14 14" fill="none" xmlns="http://www.w3.org/2000/svg">
<path fill-rule="evenodd" clip-rule="evenodd" d="M0.888753 6.99966H13.1111Z" fill="white"/>
<path fill-rule="evenodd" clip-rule="evenodd" d="M0.0554199 6.99966C0.0554199 6.53942 0.428516 6.16632 0.888753 6.16632H13.1111C13.5713 6.16632 13.9444 6.53942 13.9444 6.99966C13.9444 7.4599 13.5713 7.83299 13.1111 7.83299H0.888753C0.428516 7.83299 0.0554199 7.4599 0.0554199 6.99966Z" fill="white"/>
<path fill-rule="evenodd" clip-rule="evenodd" d="M6.99966 0.888753V13.1111Z" fill="white"/>
<path fill-rule="evenodd" clip-rule="evenodd" d="M6.99966 0.0554199C7.45989 0.0554199 7.83299 0.428516 7.83299 0.888753V13.1111C7.83299 13.5713 7.45989 13.9444 6.99966 13.9444C6.53942 13.9444 6.16632 13.5713 6.16632 13.1111V0.888753C6.16632 0.428516 6.53942 0.0554199 6.99966 0.0554199Z" fill="white"/>
</svg>
