<svg width="38" height="38" viewBox="0 0 38 38" fill="none" xmlns="http://www.w3.org/2000/svg">
<path d="M9.20745 34.7256C10.3418 34.7256 11.2613 33.806 11.2613 32.6717C11.2613 31.5374 10.3418 30.6178 9.20745 30.6178C8.07312 30.6178 7.15356 31.5374 7.15356 32.6717C7.15356 33.806 8.07312 34.7256 9.20745 34.7256Z" fill="#1B1B1B"/>
<path d="M21.5309 34.7256C22.6653 34.7256 23.5848 33.806 23.5848 32.6717C23.5848 31.5374 22.6653 30.6178 21.5309 30.6178C20.3966 30.6178 19.4771 31.5374 19.4771 32.6717C19.4771 33.806 20.3966 34.7256 21.5309 34.7256Z" fill="#1B1B1B"/>
<path fill-rule="evenodd" clip-rule="evenodd" d="M2.13306 14.1868C2.13306 13.6826 2.54175 13.2739 3.04589 13.2739H5.7844C6.21954 13.2739 6.59418 13.5811 6.67951 14.0077L7.3543 17.3817H24.954C25.2404 17.3817 25.5102 17.5161 25.6827 17.7448C25.8552 17.9735 25.9104 18.2699 25.8317 18.5453L23.0932 28.1301C22.9812 28.522 22.623 28.7921 22.2155 28.7921H8.52291C8.08778 28.7921 7.71314 28.485 7.6278 28.0583L5.03606 15.0996H3.04589C2.54175 15.0996 2.13306 14.6909 2.13306 14.1868ZM7.71944 19.2074L9.27126 26.9665H21.5269L23.7438 19.2074H7.71944Z" fill="#1B1B1B"/>
<rect x="15" width="23" height="22" rx="11" fill="#538FEA"/>
<path d="M26.3345 15.1385C25.7498 15.1385 25.2479 14.9905 24.8288 14.6946C24.4122 14.3963 24.0914 13.9666 23.8665 13.4055C23.6439 12.8421 23.5327 12.1638 23.5327 11.3707C23.535 10.5777 23.6475 9.90294 23.87 9.34659C24.0949 8.78788 24.4157 8.36174 24.8324 8.06818C25.2514 7.77462 25.7521 7.62784 26.3345 7.62784C26.9169 7.62784 27.4176 7.77462 27.8366 8.06818C28.2557 8.36174 28.5765 8.78788 28.799 9.34659C29.0239 9.9053 29.1364 10.58 29.1364 11.3707C29.1364 12.1662 29.0239 12.8456 28.799 13.4091C28.5765 13.9702 28.2557 14.3987 27.8366 14.6946C27.42 14.9905 26.9193 15.1385 26.3345 15.1385ZM26.3345 14.027C26.7891 14.027 27.1477 13.8033 27.4105 13.3558C27.6757 12.906 27.8082 12.2443 27.8082 11.3707C27.8082 10.7931 27.7479 10.3078 27.6271 9.91477C27.5064 9.52178 27.3359 9.22585 27.1158 9.02699C26.8956 8.82576 26.6352 8.72514 26.3345 8.72514C25.8823 8.72514 25.5249 8.95005 25.2621 9.39986C24.9993 9.8473 24.8667 10.5043 24.8643 11.3707C24.862 11.9508 24.92 12.4384 25.0384 12.8338C25.1591 13.2292 25.3295 13.5275 25.5497 13.7287C25.7699 13.9276 26.0315 14.027 26.3345 14.027Z" fill="#F7F7F7"/>
</svg>
