<svg width="20" height="20" viewBox="0 0 20 20" fill="none" xmlns="http://www.w3.org/2000/svg">
<path fill-rule="evenodd" clip-rule="evenodd" d="M1.45825 5C1.45825 4.4247 1.92462 3.95833 2.49992 3.95833H17.4999C18.0752 3.95833 18.5416 4.4247 18.5416 5C18.5416 5.5753 18.0752 6.04167 17.4999 6.04167H2.49992C1.92462 6.04167 1.45825 5.5753 1.45825 5ZM1.45825 10C1.45825 9.4247 1.92462 8.95833 2.49992 8.95833H17.4999C18.0752 8.95833 18.5416 9.4247 18.5416 10C18.5416 10.5753 18.0752 11.0417 17.4999 11.0417H2.49992C1.92462 11.0417 1.45825 10.5753 1.45825 10ZM1.45825 15C1.45825 14.4247 1.92462 13.9583 2.49992 13.9583H17.4999C18.0752 13.9583 18.5416 14.4247 18.5416 15C18.5416 15.5753 18.0752 16.0417 17.4999 16.0417H2.49992C1.92462 16.0417 1.45825 15.5753 1.45825 15Z" fill="#538FEA"/>
</svg>
