<svg width="24" height="24" viewBox="0 0 24 24" fill="none" xmlns="http://www.w3.org/2000/svg">
<path d="M8.5118 16.2895L20.5498 3.45434C20.8339 3.15145 21.1715 3 21.5625 3C21.9536 3 22.2907 3.15145 22.5739 3.45434C22.858 3.75724 23 4.11718 23 4.53416C23 4.95115 22.858 5.31059 22.5739 5.61247L9.50608 19.5457C9.222 19.8485 8.89057 20 8.5118 20C8.13302 20 7.80159 19.8485 7.51751 19.5457L1.40973 13.0334C1.12565 12.7305 0.989292 12.3706 1.00066 11.9536C1.01202 11.5366 1.16021 11.1772 1.44524 10.8753C1.72933 10.5724 2.06691 10.4209 2.458 10.4209C2.84909 10.4209 3.1862 10.5724 3.46933 10.8753L8.5118 16.2895Z" fill="#B1B1B1"/>
</svg>
