<svg width="24" height="24" viewBox="0 0 24 24" fill="none" xmlns="http://www.w3.org/2000/svg">
<path d="M10.1217 15.5991L18.3294 7.29399C18.5231 7.098 18.7533 7 19.0199 7C19.2866 7 19.5164 7.098 19.7095 7.29399C19.9032 7.48998 20 7.72288 20 7.99269C20 8.26251 19.9032 8.49509 19.7095 8.69042L10.7996 17.706C10.6059 17.902 10.3799 18 10.1217 18C9.86342 18 9.63745 17.902 9.44376 17.706L5.27936 13.4922C5.08567 13.2962 4.9927 13.0633 5.00045 12.7935C5.00819 12.5237 5.10924 12.2911 5.30358 12.0958C5.49727 11.8998 5.72744 11.8018 5.99409 11.8018C6.26074 11.8018 6.49059 11.8998 6.68364 12.0958L10.1217 15.5991Z" fill="#B1B1B1"/>
</svg>
