<svg width="24" height="24" viewBox="0 0 24 24" fill="none" xmlns="http://www.w3.org/2000/svg">
<path d="M12 14.9998C13.6569 14.9998 15 13.6566 15 11.9998C15 10.3429 13.6569 8.99976 12 8.99976C10.3431 8.99976 9 10.3429 9 11.9998C9 13.6566 10.3431 14.9998 12 14.9998Z" fill="#B1B1B1"/>
<path d="M23.0081 11.1842C21.7678 9.26613 20.1585 7.63675 18.3548 6.47191C16.3593 5.18191 14.1562 4.49988 11.984 4.49988C9.99089 4.49988 8.03105 5.06941 6.15886 6.19253C4.24964 7.33769 2.51996 9.01066 1.01761 11.1646C0.848014 11.408 0.754608 11.6963 0.749266 11.993C0.743924 12.2896 0.826888 12.5811 0.987614 12.8305C2.22558 14.7678 3.81886 16.3996 5.59449 17.5485C7.59371 18.8436 9.74527 19.4999 11.984 19.4999C14.1735 19.4999 16.3814 18.8235 18.3684 17.5442C20.1712 16.3832 21.7771 14.7477 23.0128 12.8136C23.168 12.57 23.25 12.2871 23.2492 11.9982C23.2483 11.7094 23.1647 11.4269 23.0081 11.1842ZM12 16.4999C11.1099 16.4999 10.2399 16.236 9.49989 15.7415C8.75987 15.247 8.18309 14.5442 7.8425 13.7219C7.5019 12.8997 7.41279 11.9949 7.58642 11.122C7.76006 10.2491 8.18864 9.44723 8.81798 8.81789C9.44731 8.18856 10.2491 7.75998 11.122 7.58634C11.995 7.41271 12.8998 7.50182 13.722 7.84242C14.5443 8.18301 15.2471 8.75979 15.7416 9.49981C16.236 10.2398 16.5 11.1099 16.5 11.9999C16.4986 13.1929 16.024 14.3367 15.1804 15.1803C14.3368 16.024 13.193 16.4985 12 16.4999Z" fill="#B1B1B1"/>
</svg>
