<svg width="24" height="24" viewBox="0 0 24 24" fill="none" xmlns="http://www.w3.org/2000/svg">
<path d="M7.32402 8.94834C8.57559 11.408 10.592 13.4157 13.0517 14.676L14.9638 12.7639C15.1984 12.5292 15.5461 12.451 15.8503 12.5553C16.8237 12.8769 17.8754 13.0507 18.9531 13.0507C19.4312 13.0507 19.8223 13.4418 19.8223 13.9198V16.9531C19.8223 17.4312 19.4312 17.8223 18.9531 17.8223C10.7919 17.8223 4.17773 11.2081 4.17773 3.04688C4.17773 2.56885 4.56885 2.17773 5.04688 2.17773H8.08887C8.5669 2.17773 8.95801 2.56885 8.95801 3.04688C8.95801 4.1333 9.13184 5.17627 9.45342 6.14971C9.54902 6.45391 9.47949 6.79287 9.23613 7.03623L7.32402 8.94834Z" fill="#538FEA"/>
</svg>
