<svg width="24" height="24" viewBox="0 0 24 24" fill="none" xmlns="http://www.w3.org/2000/svg">
<path d="M19.7629 19.7628C19.411 20.1147 18.8404 20.1147 18.4884 19.7628L13.1497 14.4252C12.6497 14.7916 12.0997 15.0792 11.4997 15.288C10.8997 15.496 10.2665 15.6 9.6001 15.6C7.9337 15.6 6.5169 15.0168 5.3497 13.8504C4.1833 12.6832 3.6001 11.2664 3.6001 9.59998C3.6001 7.93358 4.1833 6.51678 5.3497 5.34958C6.5169 4.18318 7.9337 3.59998 9.6001 3.59998C11.2665 3.59998 12.6833 4.18318 13.8505 5.34958C15.0169 6.51678 15.6001 7.93358 15.6001 9.59998C15.6001 10.2664 15.4961 10.8996 15.2881 11.4996C15.0793 12.0996 14.7917 12.6496 14.4253 13.1496L19.763 18.4883C20.1149 18.8403 20.1148 19.4108 19.7629 19.7628ZM9.6001 13.8C10.7665 13.8 11.7581 13.3916 12.5749 12.5748C13.3917 11.758 13.8001 10.7664 13.8001 9.59998C13.8001 8.43358 13.3917 7.44198 12.5749 6.62518C11.7581 5.80838 10.7665 5.39998 9.6001 5.39998C8.4337 5.39998 7.4421 5.80838 6.6253 6.62518C5.8085 7.44198 5.4001 8.43358 5.4001 9.59998C5.4001 10.7664 5.8085 11.758 6.6253 12.5748C7.4421 13.3916 8.4337 13.8 9.6001 13.8Z" fill="#B1B1B1"/>
</svg>
