<svg width="16" height="16" viewBox="0 0 16 16" fill="none" xmlns="http://www.w3.org/2000/svg">
<path fill-rule="evenodd" clip-rule="evenodd" d="M7.57779 1.05932C7.66909 1.02018 7.76739 1 7.86673 1C7.96606 1 8.06436 1.02018 8.15566 1.05932L12.8446 3.06941C13.1085 3.18253 13.3334 3.37062 13.4914 3.61035C13.6494 3.85008 13.7336 4.13091 13.7335 4.41802V9.44874C13.7334 10.3536 13.4941 11.2424 13.0399 12.025C12.5856 12.8077 11.9326 13.4563 11.147 13.9053L8.23047 15.5714C8.11968 15.6347 7.99431 15.668 7.86673 15.668C7.73915 15.668 7.61377 15.6347 7.50299 15.5714L4.58649 13.9053C3.80062 13.4562 3.14746 12.8073 2.69322 12.0244C2.23899 11.2415 1.99983 10.3524 2 9.44727V4.41802C2.00003 4.13103 2.08426 3.85036 2.24224 3.61077C2.40023 3.37119 2.62504 3.18321 2.88881 3.07014L7.57779 1.06079V1.05932ZM10.5852 7.38585C10.7188 7.24754 10.7927 7.0623 10.7911 6.87002C10.7894 6.67774 10.7123 6.49381 10.5763 6.35784C10.4403 6.22187 10.2564 6.14475 10.0641 6.14308C9.87183 6.14141 9.68659 6.21532 9.54828 6.34891L7.13339 8.7638L6.18518 7.81559C6.04687 7.68201 5.86162 7.60809 5.66934 7.60976C5.47706 7.61143 5.29313 7.68856 5.15717 7.82452C5.0212 7.96049 4.94407 8.14442 4.9424 8.3367C4.94073 8.52898 5.01465 8.71423 5.14823 8.85253L6.61492 10.3192C6.75244 10.4567 6.93893 10.5339 7.13339 10.5339C7.32784 10.5339 7.51434 10.4567 7.65186 10.3192L10.5852 7.38585Z" fill="#538FEA"/>
</svg>
