<svg width="24" height="24" viewBox="0 0 24 24" fill="none" xmlns="http://www.w3.org/2000/svg">
<path fill-rule="evenodd" clip-rule="evenodd" d="M10 14.7498C7.1005 14.7498 4.75 17.1003 4.75 19.9998V20.9998C4.75 21.414 4.41421 21.7498 4 21.7498C3.58579 21.7498 3.25 21.414 3.25 20.9998V19.9998C3.25 16.2718 6.27208 13.2498 10 13.2498H14C17.7279 13.2498 20.75 16.2718 20.75 19.9998V20.9998C20.75 21.414 20.4142 21.7498 20 21.7498C19.5858 21.7498 19.25 21.414 19.25 20.9998V19.9998C19.25 17.1003 16.8995 14.7498 14 14.7498H10Z" fill="#1B1B1B"/>
<path fill-rule="evenodd" clip-rule="evenodd" d="M12 3.74976C10.2051 3.74976 8.75 5.20483 8.75 6.99976C8.75 8.79468 10.2051 10.2498 12 10.2498C13.7949 10.2498 15.25 8.79468 15.25 6.99976C15.25 5.20483 13.7949 3.74976 12 3.74976ZM7.25 6.99976C7.25 4.3764 9.37665 2.24976 12 2.24976C14.6233 2.24976 16.75 4.3764 16.75 6.99976C16.75 9.62311 14.6233 11.7498 12 11.7498C9.37665 11.7498 7.25 9.62311 7.25 6.99976Z" fill="#1B1B1B"/>
</svg>
