<svg width="26" height="26" viewBox="0 0 26 26" fill="none" xmlns="http://www.w3.org/2000/svg">
<path fill-rule="evenodd" clip-rule="evenodd" d="M1.89587 6.50001C1.89587 5.75212 2.50215 5.14584 3.25004 5.14584H22.75C23.4979 5.14584 24.1042 5.75212 24.1042 6.50001C24.1042 7.2479 23.4979 7.85418 22.75 7.85418H3.25004C2.50215 7.85418 1.89587 7.2479 1.89587 6.50001ZM1.89587 13C1.89587 12.2521 2.50215 11.6458 3.25004 11.6458H22.75C23.4979 11.6458 24.1042 12.2521 24.1042 13C24.1042 13.7479 23.4979 14.3542 22.75 14.3542H3.25004C2.50215 14.3542 1.89587 13.7479 1.89587 13ZM1.89587 19.5C1.89587 18.7521 2.50215 18.1458 3.25004 18.1458H22.75C23.4979 18.1458 24.1042 18.7521 24.1042 19.5C24.1042 20.2479 23.4979 20.8542 22.75 20.8542H3.25004C2.50215 20.8542 1.89587 20.2479 1.89587 19.5Z" fill="#B1B1B1"/>
</svg>
