<svg width="24" height="24" viewBox="0 0 24 24" fill="none" xmlns="http://www.w3.org/2000/svg">
<path d="M7.89231 21.1934C8.86459 21.1934 9.65278 20.4052 9.65278 19.433C9.65278 18.4607 8.86459 17.6725 7.89231 17.6725C6.92003 17.6725 6.13184 18.4607 6.13184 19.433C6.13184 20.4052 6.92003 21.1934 7.89231 21.1934Z" fill="#1B1B1B"/>
<path d="M18.4551 21.1934C19.4273 21.1934 20.2155 20.4052 20.2155 19.433C20.2155 18.4607 19.4273 17.6725 18.4551 17.6725C17.4828 17.6725 16.6946 18.4607 16.6946 19.433C16.6946 20.4052 17.4828 21.1934 18.4551 21.1934Z" fill="#1B1B1B"/>
<path fill-rule="evenodd" clip-rule="evenodd" d="M1.82837 3.58871C1.82837 3.15658 2.17868 2.80627 2.6108 2.80627H4.95809C5.33106 2.80627 5.65219 3.06953 5.72533 3.43526L6.30372 6.32722H21.3892C21.6347 6.32722 21.866 6.44246 22.0138 6.63847C22.1617 6.83448 22.2089 7.08852 22.1415 7.3246L19.7942 15.5401C19.6982 15.876 19.3912 16.1076 19.0419 16.1076H7.30539C6.93242 16.1076 6.6113 15.8444 6.53815 15.4786L4.31665 4.37114H2.6108C2.17868 4.37114 1.82837 4.02083 1.82837 3.58871ZM6.6167 7.89208L7.94683 14.5427H18.4517L20.3519 7.89208H6.6167Z" fill="#1B1B1B"/>
</svg>
