<svg width="24" height="24" viewBox="0 0 24 24" fill="none" xmlns="http://www.w3.org/2000/svg">
<path d="M7.8125 20.625C8.74448 20.625 9.5 19.8695 9.5 18.9375C9.5 18.0055 8.74448 17.25 7.8125 17.25C6.88052 17.25 6.125 18.0055 6.125 18.9375C6.125 19.8695 6.88052 20.625 7.8125 20.625Z" fill="#1B1B1B"/>
<path d="M17.9375 20.625C18.8695 20.625 19.625 19.8695 19.625 18.9375C19.625 18.0055 18.8695 17.25 17.9375 17.25C17.0055 17.25 16.25 18.0055 16.25 18.9375C16.25 19.8695 17.0055 20.625 17.9375 20.625Z" fill="#1B1B1B"/>
<path fill-rule="evenodd" clip-rule="evenodd" d="M2 3.75C2 3.33579 2.33579 3 2.75 3H5C5.35751 3 5.66532 3.25234 5.73544 3.60291L6.28985 6.375H20.75C20.9853 6.375 21.207 6.48547 21.3488 6.67335C21.4905 6.86124 21.5358 7.10475 21.4711 7.33104L19.2211 15.206C19.1292 15.528 18.8349 15.75 18.5 15.75H7.25C6.89249 15.75 6.58468 15.4977 6.51456 15.1471L4.38515 4.5H2.75C2.33579 4.5 2 4.16421 2 3.75ZM6.58985 7.875L7.86485 14.25H17.9343L19.7557 7.875H6.58985Z" fill="#1B1B1B"/>
</svg>
