<svg width="24" height="24" viewBox="0 0 24 24" fill="none" xmlns="http://www.w3.org/2000/svg">
<path fill-rule="evenodd" clip-rule="evenodd" d="M4.18692 4.1868C4.63603 3.7377 5.36417 3.7377 5.81327 4.1868L19.8133 18.1868C20.2624 18.6359 20.2624 19.364 19.8133 19.8131C19.3642 20.2623 18.636 20.2623 18.1869 19.8131L4.18692 5.81315C3.73782 5.36405 3.73782 4.63591 4.18692 4.1868Z" fill="#B1B1B1"/>
<path fill-rule="evenodd" clip-rule="evenodd" d="M19.8133 4.1868C20.2624 4.63591 20.2624 5.36405 19.8133 5.81315L5.81327 19.8131C5.36417 20.2623 4.63603 20.2623 4.18692 19.8131C3.73782 19.364 3.73782 18.6359 4.18692 18.1868L18.1869 4.1868C18.636 3.7377 19.3642 3.7377 19.8133 4.1868Z" fill="#B1B1B1"/>
</svg>
