<svg width="24" height="24" viewBox="0 0 24 24" fill="none" xmlns="http://www.w3.org/2000/svg">
<path d="M20.2498 21.0005C20.1513 21.0006 20.0538 20.9813 19.9628 20.9435C19.8718 20.9058 19.7892 20.8504 19.7197 20.7806L3.21969 4.28062C3.08498 4.13882 3.01099 3.95001 3.01349 3.75444C3.01599 3.55887 3.0948 3.37201 3.2331 3.23371C3.3714 3.09541 3.55825 3.0166 3.75383 3.0141C3.9494 3.0116 4.13821 3.08559 4.28001 3.2203L20.78 19.7203C20.8848 19.8252 20.9562 19.9588 20.9851 20.1042C21.014 20.2497 20.9992 20.4004 20.9424 20.5374C20.8857 20.6744 20.7896 20.7915 20.6663 20.8739C20.5431 20.9564 20.3981 21.0004 20.2498 21.0005Z" fill="#B1B1B1"/>
<path d="M11.6245 14.8047L9.19687 12.377C9.18296 12.3632 9.16508 12.3542 9.14574 12.351C9.1264 12.3479 9.10656 12.351 9.08903 12.3597C9.0715 12.3684 9.05714 12.3825 9.04799 12.3998C9.03883 12.4171 9.03532 12.4368 9.03797 12.4563C9.13598 13.0861 9.43171 13.6684 9.88242 14.1191C10.3331 14.5699 10.9155 14.8656 11.5453 14.9636C11.5647 14.9662 11.5845 14.9627 11.6018 14.9536C11.6191 14.9444 11.6331 14.9301 11.6419 14.9125C11.6506 14.895 11.6536 14.8752 11.6505 14.8558C11.6474 14.8365 11.6383 14.8186 11.6245 14.8047Z" fill="#B1B1B1"/>
<path d="M12.3748 9.19443L14.8062 11.6249C14.8201 11.6389 14.838 11.6481 14.8575 11.6514C14.8769 11.6546 14.8969 11.6516 14.9145 11.6428C14.9322 11.6341 14.9466 11.6199 14.9558 11.6025C14.9649 11.5851 14.9684 11.5652 14.9656 11.5457C14.8679 10.915 14.5719 10.3318 14.1206 9.88051C13.6693 9.42923 13.0861 9.13328 12.4555 9.03552C12.4359 9.03251 12.4159 9.03574 12.3984 9.04476C12.3808 9.05379 12.3665 9.06813 12.3576 9.08576C12.3486 9.10338 12.3455 9.12338 12.3486 9.14289C12.3517 9.16241 12.3609 9.18044 12.3748 9.19443Z" fill="#B1B1B1"/>
<path d="M23.0155 12.8134C23.1707 12.5698 23.2527 12.2868 23.2519 11.998C23.2511 11.7092 23.1674 11.4267 23.0108 11.184C21.7705 9.26588 20.1613 7.63651 18.3575 6.47166C16.3592 5.18167 14.1561 4.49963 11.9849 4.49963C10.8402 4.50121 9.70338 4.68783 8.61831 5.05229C8.58795 5.06239 8.56067 5.0801 8.53908 5.10372C8.51749 5.12735 8.50231 5.15611 8.49497 5.18726C8.48764 5.21842 8.48841 5.25093 8.4972 5.2817C8.50599 5.31248 8.52251 5.34049 8.54519 5.36307L10.7596 7.57744C10.7826 7.60049 10.8112 7.61715 10.8426 7.62578C10.874 7.63441 10.9071 7.63471 10.9386 7.62666C11.6892 7.44375 12.4743 7.45715 13.2182 7.66558C13.9621 7.87401 14.6398 8.27045 15.1861 8.81673C15.7323 9.36301 16.1288 10.0407 16.3372 10.7846C16.5456 11.5285 16.559 12.3136 16.3761 13.0642C16.3682 13.0956 16.3685 13.1287 16.3771 13.16C16.3858 13.1913 16.4024 13.2198 16.4253 13.2428L19.6105 16.4303C19.6436 16.4634 19.688 16.483 19.7349 16.4851C19.7817 16.4872 19.8277 16.4716 19.8636 16.4415C21.0897 15.3965 22.1521 14.1735 23.0155 12.8134Z" fill="#B1B1B1"/>
<path d="M12 16.5001C11.3188 16.5001 10.6464 16.3455 10.0337 16.0479C9.42093 15.7502 8.88374 15.3174 8.46262 14.7819C8.0415 14.2465 7.74744 13.6224 7.60261 12.9568C7.45779 12.2911 7.46597 11.6013 7.62656 10.9393C7.63452 10.9078 7.63417 10.8748 7.62554 10.8435C7.61692 10.8122 7.6003 10.7836 7.57734 10.7607L4.44421 7.62616C4.41099 7.5929 4.36649 7.57333 4.31952 7.57134C4.27255 7.56934 4.22655 7.58506 4.19062 7.61538C3.04734 8.59085 1.9875 9.77772 1.01859 11.1648C0.84899 11.4082 0.755584 11.6965 0.750243 11.9932C0.744901 12.2898 0.827865 12.5813 0.988591 12.8307C2.22656 14.768 3.81937 16.3998 5.59546 17.5487C7.59656 18.8438 9.74624 19.5001 11.985 19.5001C13.1412 19.497 14.2899 19.3143 15.39 18.9587C15.4206 18.9489 15.4482 18.9314 15.4702 18.9078C15.4921 18.8843 15.5076 18.8555 15.5152 18.8242C15.5227 18.793 15.5221 18.7603 15.5134 18.7293C15.5047 18.6983 15.4882 18.6701 15.4655 18.6474L13.2403 16.4227C13.2173 16.3998 13.1888 16.3831 13.1575 16.3745C13.1262 16.3659 13.0932 16.3655 13.0617 16.3735C12.7141 16.4577 12.3577 16.5002 12 16.5001Z" fill="#B1B1B1"/>
</svg>
