<svg width="24" height="24" viewBox="0 0 24 24" fill="none" xmlns="http://www.w3.org/2000/svg">
<path d="M18.3877 5.61328H5.61252C4.73423 5.61328 4.02361 6.33189 4.02361 7.21018L4.01562 16.7916C4.01562 17.6699 4.73423 18.3885 5.61252 18.3885H18.3877C19.266 18.3885 19.9846 17.6699 19.9846 16.7916V7.21018C19.9846 6.33189 19.266 5.61328 18.3877 5.61328ZM18.3877 8.43181C18.3877 8.66526 18.2675 8.88224 18.0695 9.00597L12.5301 12.4681C12.2059 12.6707 11.7944 12.6707 11.4701 12.4681L5.93075 9.00597C5.73279 8.88224 5.61252 8.66526 5.61252 8.43181C5.61252 7.9 6.19749 7.57579 6.64846 7.85764L11.4701 10.8712C11.7944 11.0738 12.2059 11.0738 12.5301 10.8712L17.3518 7.85764C17.8028 7.57579 18.3877 7.9 18.3877 8.43181Z" fill="#538FEA"/>
</svg>
