<svg width="24" height="24" viewBox="0 0 24 24" fill="none" xmlns="http://www.w3.org/2000/svg">
<path fill-rule="evenodd" clip-rule="evenodd" d="M7.05051 6.05036C8.36333 4.73754 10.1439 4 12.0005 4C13.8571 4 15.6377 4.73754 16.9505 6.05036C18.2633 7.36318 19.0009 9.14375 19.0009 11.0004C19.0009 12.857 18.2633 14.6375 16.9505 15.9504L12.0005 20.9004L7.05051 15.9504C6.40042 15.3003 5.88474 14.5286 5.53291 13.6793C5.18108 12.83 5 11.9197 5 11.0004C5 10.081 5.18108 9.17073 5.53291 8.32141C5.88474 7.47208 6.40042 6.70038 7.05051 6.05036ZM12.0005 13.0004C12.5309 13.0004 13.0396 12.7896 13.4147 12.4146C13.7898 12.0395 14.0005 11.5308 14.0005 11.0004C14.0005 10.4699 13.7898 9.96122 13.4147 9.58614C13.0396 9.21107 12.5309 9.00036 12.0005 9.00036C11.4701 9.00036 10.9614 9.21107 10.5863 9.58614C10.2112 9.96122 10.0005 10.4699 10.0005 11.0004C10.0005 11.5308 10.2112 12.0395 10.5863 12.4146C10.9614 12.7896 11.4701 13.0004 12.0005 13.0004Z" fill="#538FEA"/>
</svg>
