<svg width="24" height="24" viewBox="0 0 24 24" fill="none" xmlns="http://www.w3.org/2000/svg">
<path d="M4.86776 10.579C4.80044 10.6438 4.72012 10.6952 4.63149 10.7304C4.54286 10.7655 4.44771 10.7836 4.35159 10.7836C4.25547 10.7836 4.16031 10.7655 4.07168 10.7304C3.98306 10.6952 3.90273 10.6438 3.83541 10.579C3.69839 10.4473 3.6216 10.2701 3.6216 10.0855C3.6216 9.90089 3.69839 9.72367 3.83541 9.59201L10.2212 3.50017C11.6612 2.44419 13.1096 1.93721 14.5518 2.0062C16.3687 2.0942 17.7833 2.74819 18.984 3.82116C20.208 4.91513 21 6.47609 21 8.36804C21 9.82001 20.5532 11.098 19.6098 12.2319L10.6066 20.9917C9.696 21.6967 8.68376 22.0377 7.59953 21.9967C6.22306 21.9427 5.19918 21.5227 4.43788 20.8117C3.54635 19.9807 3 18.9598 3 17.5868C3 16.4948 3.39918 15.4869 4.22294 14.5409L12.1472 6.90008C12.7825 6.2601 13.404 5.88011 14.0393 5.78811C14.4633 5.72503 14.8972 5.76085 15.3033 5.89244C15.7093 6.02404 16.075 6.24741 16.3687 6.54309C16.932 7.10608 17.1734 7.80806 17.0887 8.60704C17.0305 9.15202 16.7944 9.65401 16.3602 10.135L9.07553 17.1828C9.00865 17.2479 8.92873 17.2997 8.84042 17.3352C8.75212 17.3708 8.65721 17.3894 8.56121 17.3899C8.46522 17.3905 8.37007 17.373 8.28131 17.3385C8.19255 17.3039 8.11196 17.2531 8.04424 17.1888C7.90636 17.058 7.82843 16.8812 7.82724 16.6966C7.82606 16.5119 7.9017 16.3343 8.03788 16.2018L15.2876 9.19002C15.4994 8.95503 15.6106 8.71803 15.6371 8.46604C15.6794 8.06605 15.5778 7.77106 15.3141 7.50807C15.181 7.37337 15.0146 7.27185 14.8299 7.21254C14.6452 7.15322 14.4478 7.13795 14.2553 7.16807C13.998 7.20507 13.638 7.42607 13.1944 7.87206L5.30294 15.4789C4.73435 16.1338 4.45906 16.8288 4.45906 17.5878C4.45906 18.5418 4.82435 19.2248 5.45647 19.8138C5.95941 20.2837 6.64235 20.5637 7.65882 20.6037C8.37882 20.6307 9.04588 20.4057 9.62612 19.9617L18.5171 11.312C19.2 10.485 19.5409 9.51201 19.5409 8.36904C19.5409 6.88708 18.93 5.68511 17.9866 4.84113C17.0231 3.97915 15.9219 3.47117 14.4787 3.40117C13.4114 3.34917 12.2922 3.74116 11.1784 4.54714L4.86776 10.579Z" fill="#B1B1B1"/>
</svg>
