<svg width="24" height="24" viewBox="0 0 24 24" fill="none" xmlns="http://www.w3.org/2000/svg">
<path fill-rule="evenodd" clip-rule="evenodd" d="M4.6665 11.9996H19.3333H4.6665Z" fill="#1B1B1B"/>
<path fill-rule="evenodd" clip-rule="evenodd" d="M3.6665 11.9996C3.6665 11.4473 4.11422 10.9996 4.6665 10.9996H19.3333C19.8856 10.9996 20.3333 11.4473 20.3333 11.9996C20.3333 12.5519 19.8856 12.9996 19.3333 12.9996H4.6665C4.11422 12.9996 3.6665 12.5519 3.6665 11.9996Z" fill="#1B1B1B"/>
<path fill-rule="evenodd" clip-rule="evenodd" d="M11.9996 4.6665V19.3333V4.6665Z" fill="#1B1B1B"/>
<path fill-rule="evenodd" clip-rule="evenodd" d="M11.9996 3.6665C12.5519 3.6665 12.9996 4.11422 12.9996 4.6665V19.3333C12.9996 19.8856 12.5519 20.3333 11.9996 20.3333C11.4473 20.3333 10.9996 19.8856 10.9996 19.3333V4.6665C10.9996 4.11422 11.4473 3.6665 11.9996 3.6665Z" fill="#1B1B1B"/>
</svg>
