<svg width="24" height="24" viewBox="0 0 24 24" fill="none" xmlns="http://www.w3.org/2000/svg">
<path fill-rule="evenodd" clip-rule="evenodd" d="M11.5778 5.05932C11.6691 5.02018 11.7674 5 11.8667 5C11.9661 5 12.0644 5.02018 12.1557 5.05932L16.8446 7.06941C17.1085 7.18253 17.3334 7.37062 17.4914 7.61035C17.6494 7.85008 17.7336 8.13091 17.7335 8.41802V13.4487C17.7334 14.3536 17.4941 15.2424 17.0399 16.025C16.5856 16.8077 15.9326 17.4563 15.147 17.9053L12.2305 19.5714C12.1197 19.6347 11.9943 19.668 11.8667 19.668C11.7391 19.668 11.6138 19.6347 11.503 19.5714L8.58649 17.9053C7.80062 17.4562 7.14746 16.8073 6.69322 16.0244C6.23899 15.2415 5.99983 14.3524 6 13.4473V8.41802C6.00003 8.13103 6.08426 7.85036 6.24224 7.61077C6.40023 7.37119 6.62504 7.18321 6.88881 7.07014L11.5778 5.06079V5.05932ZM14.5852 11.3859C14.7188 11.2475 14.7927 11.0623 14.7911 10.87C14.7894 10.6777 14.7123 10.4938 14.5763 10.3578C14.4403 10.2219 14.2564 10.1447 14.0641 10.1431C13.8718 10.1414 13.6866 10.2153 13.5483 10.3489L11.1334 12.7638L10.1852 11.8156C10.0469 11.682 9.86162 11.6081 9.66934 11.6098C9.47706 11.6114 9.29313 11.6886 9.15717 11.8245C9.0212 11.9605 8.94407 12.1444 8.9424 12.3367C8.94073 12.529 9.01465 12.7142 9.14823 12.8525L10.6149 14.3192C10.7524 14.4567 10.9389 14.5339 11.1334 14.5339C11.3278 14.5339 11.5143 14.4567 11.6519 14.3192L14.5852 11.3859Z" fill="#538FEA"/>
</svg>
