<svg width="73" height="68" viewBox="0 0 73 68" fill="none" xmlns="http://www.w3.org/2000/svg">
<path d="M33.985 30.9284V6.55206L27.4131 19.6958L5.55859 23.8053V41.9134L14.8635 44.0853C18.5208 36.9061 25.634 31.7932 33.985 30.9284Z" fill="#538FEA"/>
<path d="M39.0088 6.55206V30.9284C47.3697 31.7932 54.4829 36.9061 58.1401 44.082L67.4451 41.9101V23.802L45.5806 19.6925L39.0088 6.55206Z" fill="#538FEA"/>
<path d="M31.6414 0L6.08994 7.71725L0 19.7453L24.0364 15.2232L31.6414 0Z" fill="#538FEA"/>
<path d="M72.9999 19.7453L66.9099 7.71718L41.3486 -6.10352e-05L48.9635 15.2232L72.9999 19.7453Z" fill="#538FEA"/>
<path d="M32.0639 49.9846C32.3069 48.625 33.1523 46.9019 35.9037 46.9019C38.0204 46.9019 38.896 48.0206 39.2314 48.6853C39.7455 49.6834 39.6531 50.802 39.0487 51.6495C38.4442 52.4649 37.8698 52.8565 37.205 53.3425C35.6004 54.4611 34.3011 55.6399 34.0601 58.9395C33.9998 59.6625 34.5742 60.269 35.2691 60.269H37.1448C37.7794 60.269 38.3257 59.785 38.3839 59.1504C38.4743 57.7587 38.8377 57.4876 39.7154 56.8831C40.4705 56.3388 41.5289 55.6138 42.5571 54.2221C44.1296 52.0451 44.3404 49.2014 43.0993 46.7232C41.7698 44.1205 39.1069 42.5801 35.9017 42.5801C30.881 42.5801 28.2803 46.0263 27.738 49.6272C27.6457 50.3502 28.22 51.0189 28.9771 51.0189H30.883C31.4573 51.0149 31.9735 50.5891 32.0639 49.9846Z" fill="#F7F7F7"/>
<path d="M36.1728 62.45C34.7208 62.45 33.5439 63.6308 33.5439 65.0808C33.5439 66.5328 34.7228 67.7116 36.1728 67.7116C37.6248 67.7116 38.8036 66.5328 38.8036 65.0808C38.8056 63.6308 37.6248 62.45 36.1728 62.45Z" fill="#F7F7F7"/>
</svg>
