<svg width="54" height="52" viewBox="0 0 54 52" fill="none" xmlns="http://www.w3.org/2000/svg">
<path d="M50.5508 1.75338C49.5366 1.83205 48.765 2.72304 48.8444 3.74673L49.0478 6.36958L47.4693 5.01125C40.2204 -1.19408 29.2637 -0.34422 23.0602 6.90454C21.5781 8.63593 23.4197 7.04601 22.7374 9.08794L23.0602 10.5008C23.4457 10.4709 23.5123 12.3627 23.8925 12.3867C24.3946 11.2988 25.0564 10.273 25.8687 9.31578C30.7574 3.61538 39.3609 2.94805 45.0701 7.82643L46.648 9.17717L44.0251 9.38061C43.0109 9.45928 42.2488 10.3495 42.3282 11.3732C42.4069 12.3874 43.2972 13.1495 44.3114 13.0708L51.388 12.5219C52.4116 12.4425 53.1737 11.5523 53.0951 10.5381L52.5462 3.46151C52.4647 2.43607 51.5745 1.67398 50.5508 1.75338Z" fill="#41A2EB"/>
<path d="M35.8201 10.755C34.9767 10.8205 34.3464 11.5567 34.4119 12.4002L34.9088 18.8069C34.9618 19.4902 35.4639 20.0564 36.138 20.1906L40.9396 21.1423C41.0807 21.1693 41.2204 21.1774 41.357 21.1668C42.0246 21.115 42.6029 20.6262 42.7391 19.9377C42.9039 19.108 42.3642 18.3029 41.5345 18.1382L37.8708 17.4126L37.4638 12.165C37.3998 11.3199 36.6636 10.6896 35.8201 10.755Z" fill="#41A2EB"/>
<path d="M20.2109 31.3469V51.3783L37.5987 43.3051V23.2736L20.2109 31.3469ZM34.5363 38.2574C34.5363 38.7416 34.2565 39.1822 33.8176 39.3849L25.0391 43.4609C24.8716 43.538 24.694 43.5765 24.5147 43.5765C24.2818 43.5765 24.049 43.5112 23.8463 43.3805C23.4878 43.1526 23.2717 42.7573 23.2717 42.3317V36.3979C23.2717 35.9137 23.5531 35.4731 23.992 35.2704L32.7705 31.1944C33.1559 31.0152 33.6049 31.0453 33.9634 31.2748C34.3219 31.5027 34.5363 31.898 34.5363 32.3236V38.2574ZM10.5311 28.008V33.6638C10.5311 34.3507 9.97489 34.9069 9.28802 34.9069C8.60115 34.9069 8.04493 34.3507 8.04493 33.6638V26.8537L0.336914 23.2753V43.3084L17.7231 51.38V31.3469L10.5311 28.008ZM18.9679 13.4715L2.04742 21.327L9.04008 24.5737L25.9605 16.7182L18.9679 13.4715ZM28.9124 18.0886L11.9919 25.9441L18.9679 29.1824L35.8883 21.327L28.9124 18.0886Z" fill="#538FEA"/>
<path d="M25.7578 40.3851L32.0502 37.465V34.2686L25.7578 37.1903V40.3851Z" fill="#41A2EB"/>
<path d="M53.7874 20.3259C53.9113 19.2345 53.0093 18.3413 51.9109 18.3413C50.8126 18.3413 49.9371 19.2364 49.7771 20.3231C49.4002 22.884 48.298 25.2992 46.5812 27.2729C45.0712 29.0088 43.1571 30.3212 41.0278 31.1075V35.2841C44.3303 34.3652 47.3102 32.4953 49.5822 29.8834C51.9292 27.1852 53.3874 23.8485 53.7874 20.3259Z" fill="#41A2EB"/>
<path d="M23.9752 12.5991C23.9797 12.5894 23.9842 12.5796 23.9888 12.5699C25.381 9.59703 27.8008 7.22755 30.8023 5.8982C33.8038 4.56885 37.1846 4.36924 40.3217 5.33614C42.8216 6.10665 45.0324 7.57653 46.704 9.55288C47.4133 10.3915 48.6293 10.6898 49.5623 10.1102C50.4953 9.53059 50.7901 8.29585 50.1089 7.43424C47.9102 4.65316 44.9108 2.5884 41.4933 1.53507C37.4393 0.28556 33.0703 0.543521 29.1916 2.26141C25.4526 3.91736 22.4121 6.8223 20.5864 10.4707L23.9752 12.5991Z" fill="#41A2EB"/>
</svg>
