<svg width="70" height="70" viewBox="0 0 70 70" fill="none" xmlns="http://www.w3.org/2000/svg">
<path d="M23.7594 20.403H35.7219C36.5034 20.403 37.1359 19.7705 37.1359 18.9908V16.7485C37.1359 15.9687 36.5034 15.3346 35.7219 15.3346H33.5015C33.0798 13.6445 31.5604 12.3828 29.7398 12.3828C27.9209 12.3828 26.4015 13.6445 25.9782 15.3346H23.7577C22.9779 15.3346 22.3438 15.9671 22.3438 16.7485V18.9908C22.3454 19.7705 22.9779 20.403 23.7594 20.403ZM29.7398 14.6702C30.6217 14.6702 31.3378 15.3864 31.3378 16.2683C31.3378 17.1501 30.6217 17.8663 29.7398 17.8663C28.8563 17.8663 28.1418 17.1501 28.1418 16.2683C28.1418 15.3864 28.858 14.6702 29.7398 14.6702Z" fill="#538FEA"/>
<path d="M44.4956 40.7123V20.9001C44.4956 18.9641 42.9143 17.3828 40.9783 17.3828H39.2197V18.9942C39.2197 20.9219 37.6584 22.4831 35.7308 22.4831H23.7649C21.8472 22.4831 20.276 20.9219 20.276 18.9942V17.3828H18.5173C16.5813 17.3828 15 18.9641 15 20.9001V48.6271C15 50.5648 16.5813 52.1444 18.5173 52.1444H35.6906C35.6505 51.798 35.6321 51.4533 35.6321 51.1069C35.6321 45.8711 39.4757 41.5138 44.4956 40.7123ZM29.0509 28.8551H38.5269C39.0992 28.8551 39.5644 29.3203 39.5644 29.8926C39.5644 30.4665 39.0992 30.93 38.5269 30.93H29.0509C28.4769 30.93 28.0134 30.4648 28.0134 29.8926C28.0134 29.3203 28.4769 28.8551 29.0509 28.8551ZM29.0509 36.5139H38.5269C39.0992 36.5139 39.5644 36.9791 39.5644 37.5513C39.5644 38.1253 39.0992 38.5888 38.5269 38.5888H29.0509C28.4769 38.5888 28.0134 38.1236 28.0134 37.5513C28.0134 36.9774 28.4769 36.5139 29.0509 36.5139ZM26.3736 43.2222L23.3398 46.6023C23.1424 46.8199 22.8663 46.9387 22.5684 46.9387C22.2723 46.9387 21.9962 46.8199 21.797 46.6023L20.1957 44.8136C19.8108 44.3885 19.8392 43.7259 20.2743 43.341C20.6993 42.9662 21.3519 42.9947 21.7368 43.4197L22.5668 44.3484L24.8291 41.8284C25.214 41.4033 25.8666 41.3732 26.2916 41.7598C26.7183 42.1363 26.7584 42.7972 26.3736 43.2222ZM26.3736 35.5651L23.3398 38.9452C23.1424 39.1628 22.8663 39.2916 22.5684 39.2916C22.2723 39.2916 21.9962 39.1628 21.797 38.9452L20.1957 37.1564C19.8108 36.7314 19.8392 36.0688 20.2743 35.694C20.6993 35.3091 21.3519 35.3476 21.7368 35.7726L22.5668 36.7013L24.8291 34.1813C25.214 33.7563 25.8666 33.7161 26.2916 34.1026C26.7183 34.4875 26.7584 35.1401 26.3736 35.5651ZM26.3736 27.9063L23.3398 31.2864C23.1424 31.504 22.8663 31.6328 22.5684 31.6328C22.2723 31.6328 21.9962 31.504 21.797 31.2864L20.1957 29.4977C19.8108 29.0726 19.8392 28.42 20.2743 28.0352C20.6993 27.6503 21.3519 27.6888 21.7368 28.1138L22.5668 29.0425L24.8291 26.5225C25.214 26.0975 25.8666 26.0573 26.2916 26.4438C26.7183 26.8304 26.7584 27.4813 26.3736 27.9063ZM32.6184 46.2459H29.0509C28.4769 46.2459 28.0134 45.7807 28.0134 45.2085C28.0134 44.6362 28.4786 44.171 29.0509 44.171H32.6184C33.1907 44.171 33.6559 44.6362 33.6559 45.2085C33.6559 45.7824 33.1907 46.2459 32.6184 46.2459Z" fill="#538FEA"/>
<path d="M54.5981 51.1076C54.5981 46.4441 50.8181 42.6641 46.1545 42.6641C41.491 42.6641 37.7109 46.4441 37.7109 51.1076C37.7109 55.7712 41.491 59.5512 46.1545 59.5512C50.8181 59.5512 54.5981 55.7712 54.5981 51.1076ZM45.2275 54.712C44.9062 54.712 44.5983 54.5781 44.3774 54.3422L41.9746 51.7602C41.5378 51.2917 41.5646 50.5571 42.0331 50.1204C42.5033 49.6853 43.2362 49.7104 43.673 50.179L45.2275 51.8489L48.636 48.1877C49.0711 47.7192 49.809 47.6941 50.2759 48.1291C50.7444 48.5659 50.7712 49.3005 50.3328 49.769L46.0759 54.3405C45.8583 54.5781 45.5488 54.712 45.2275 54.712Z" fill="#41A2EB"/>
</svg>
