<svg width="70" height="70" viewBox="0 0 70 70" fill="none" xmlns="http://www.w3.org/2000/svg">
<path d="M61.7155 38.641L57.1282 37.7296L55.0233 31.2432C54.272 28.9321 52.1671 27.3715 49.795 27.3715H36.7069C36.7069 36.9394 29.1453 44.7026 19.8138 44.7026V49.3247C19.8138 50.7125 20.9214 51.8482 22.2749 51.8482H24.223C24.223 55.2533 26.9223 58.021 30.2432 58.021C33.5641 58.021 36.2635 55.2533 36.2635 51.8482H46.8401C46.8401 55.2533 49.5394 58.021 52.8604 58.021C56.1813 58.021 58.8806 55.2533 58.8806 51.8482H61.2527C62.6159 51.8482 63.7139 50.7125 63.7139 49.3247V41.1248C63.7119 39.9176 62.8812 38.8753 61.7155 38.641ZM30.2413 54.7669C28.6689 54.7669 27.3948 53.4485 27.3948 51.8482C27.3948 50.236 28.6709 48.9296 30.2413 48.9296C31.8039 48.9296 33.0878 50.238 33.0878 51.8482C33.0878 53.4485 31.8039 54.7669 30.2413 54.7669ZM46.2359 37.1817V30.6336H49.795C50.8039 30.6336 51.6927 31.2928 52.0083 32.2657L53.6001 37.1817H46.2359ZM52.8584 54.7669C51.2861 54.7669 50.0119 53.4485 50.0119 51.8482C50.0119 50.236 51.288 48.9296 52.8584 48.9296C54.4211 48.9296 55.7049 50.238 55.7049 51.8482C55.7049 53.4485 54.4192 54.7669 52.8584 54.7669Z" fill="#538FEA"/>
<path d="M33.5313 21.4548C31.7092 17.0312 27.9022 13.6817 23.2665 12.546C24.5155 14.6427 25.3694 17.8571 25.8109 21.4548H33.5313Z" fill="#41A2EB"/>
<path d="M16.3613 12.546C11.7255 13.6817 7.92049 17.0312 6.09834 21.4548H13.8168C14.2583 17.8571 15.1123 14.6447 16.3613 12.546Z" fill="#41A2EB"/>
<path d="M23.7544 21.4548C22.9798 15.6215 21.1654 12.1152 19.8138 12.1152C18.4622 12.1152 16.6459 15.6215 15.8733 21.4548H23.7544Z" fill="#41A2EB"/>
<path d="M13.4586 27.3755C13.4586 26.0889 13.5128 24.8043 13.6096 23.5415H5.42638C5.11462 24.7686 4.93262 26.0492 4.93262 27.3755C4.93262 28.7017 5.11656 29.9804 5.42638 31.2094H13.6096C13.5128 29.9466 13.4586 28.662 13.4586 27.3755Z" fill="#41A2EB"/>
<path d="M15.6526 23.5415C15.5538 24.7467 15.4957 26.0194 15.4957 27.3755C15.4957 28.7315 15.5538 30.0042 15.6526 31.2094H23.9771C24.0759 30.0042 24.134 28.7315 24.134 27.3755C24.134 26.0194 24.0739 24.7467 23.9771 23.5415H15.6526Z" fill="#41A2EB"/>
<path d="M33.5313 33.2961H25.8109C25.3694 36.8937 24.5155 40.1082 23.2665 42.2048C27.9022 41.0691 31.7092 37.7197 33.5313 33.2961Z" fill="#41A2EB"/>
<path d="M26.169 27.3755C26.169 28.662 26.1148 29.9466 26.0179 31.2094H34.2031C34.5149 29.9824 34.6969 28.7017 34.6969 27.3755C34.6969 26.0492 34.5129 24.7705 34.2031 23.5415H26.0179C26.1148 24.8043 26.169 26.0889 26.169 27.3755Z" fill="#41A2EB"/>
<path d="M6.09834 33.2961C7.92049 37.7197 11.7275 41.0691 16.3613 42.2048C15.1123 40.1082 14.2583 36.8937 13.8168 33.2961H6.09834Z" fill="#41A2EB"/>
<path d="M23.7544 33.2961H15.8733C16.6478 39.1293 18.4642 42.6357 19.8138 42.6357C21.1654 42.6357 22.9798 39.1293 23.7544 33.2961Z" fill="#41A2EB"/>
</svg>
