<svg width="100" height="100" viewBox="0 0 100 100" fill="none" xmlns="http://www.w3.org/2000/svg">
<rect width="100" height="100" rx="8" fill="#F7F7F7"/>
<path d="M61.2251 35.5796C54.1707 35.5796 48.4512 41.3459 48.4512 48.458C48.4512 55.5701 54.1707 61.3364 61.2251 61.3364C68.2795 61.3364 73.9989 55.5701 73.9989 48.458C73.9989 41.3459 68.2795 35.5796 61.2251 35.5796ZM66.855 47.0902L60.8695 53.1247C60.5189 53.4782 60.0594 53.6537 59.6024 53.6537C59.1429 53.6537 58.6834 53.4782 58.3327 53.1247L55.3581 50.1257C54.6567 49.4211 54.6567 48.2751 55.3581 47.5705C56.0594 46.8634 57.1937 46.8634 57.895 47.5705L59.5999 49.2894L64.3182 44.5325C65.0195 43.8279 66.1537 43.8279 66.855 44.5325C67.5539 45.2396 67.5539 46.3856 66.855 47.0902Z" fill="#538FEA"/>
<path d="M60.7077 19C50.5409 19 41.5832 24.2348 36.3281 32.1759C37.8348 32.9658 39.1987 33.9947 40.391 35.1967C44.7054 28.4893 52.2047 24.0616 60.7077 24.0616C74.091 24.0616 84.9785 35.0383 84.9785 48.5311C84.9785 62.0386 74.091 73.0176 60.7077 73.0176C57.8516 73.0176 55.1067 72.5105 52.565 71.5938C52.582 71.8619 52.582 72.1472 52.582 72.4154V76.909C55.1551 77.6819 57.8855 78.0793 60.7077 78.0793C76.8673 78.0793 89.999 64.8254 89.999 48.5336C89.999 32.2563 76.8673 19 60.7077 19Z" fill="#41A2EB"/>
<path d="M39.1341 59.5737C36.3094 61.8973 32.7182 63.3065 28.7787 63.3065C24.8416 63.3065 21.2479 61.8997 18.4256 59.5566C13.7195 61.7242 10 65.7252 10 72.4155V79.613C10 80.9272 11.052 82 12.3676 82H45.1897C46.4932 82 47.5597 80.9248 47.5597 79.613V72.4155C47.5597 65.7423 43.8427 61.7242 39.1341 59.5737Z" fill="#538FEA"/>
<path d="M28.7777 58.2421C35.0413 58.2421 40.1199 53.1219 40.1199 46.8095C40.1199 40.4922 35.0413 35.3745 28.7777 35.3745C22.5142 35.3745 17.4355 40.4946 17.4355 46.8095C17.4355 53.1219 22.5142 58.2421 28.7777 58.2421Z" fill="#538FEA"/>
</svg>
