<svg width="70" height="70" viewBox="0 0 70 70" fill="none" xmlns="http://www.w3.org/2000/svg">
<g clip-path="url(#clip0_227_36489)">
<rect width="70" height="70" rx="8" fill="white"/>
<path d="M51 22V40.2238C51.0001 41.6972 50.4592 43.1148 49.488 44.1868C48.5169 45.2587 47.1888 45.9039 45.7756 45.9904L45.45 46H19.55C18.1344 46.0001 16.7722 45.4372 15.7422 44.4264C14.7122 43.4157 14.0923 42.0335 14.0093 40.5627L14 40.2238V22L31.4732 34.1242L31.6878 34.2513C31.9408 34.3799 32.2185 34.4467 32.5 34.4467C32.7815 34.4467 33.0592 34.3799 33.3122 34.2513L33.5268 34.1242L51 22Z" fill="#538FEA"/>
<path d="M46.0531 16C48.1442 16 49.9777 17.0235 51 18.5623L32.5 30L14 18.5623C14.4855 17.8311 15.1524 17.2181 15.9453 16.7746C16.7381 16.331 17.6338 16.0698 18.5577 16.0126L18.9469 16H46.0531Z" fill="#538FEA"/>
<rect x="42" y="39" width="16" height="16" fill="white"/>
<path d="M50 33C42.2691 33 36 39.2668 36 47C36 54.7308 42.2691 61 50 61C57.7308 61 64 54.7332 64 47C64 39.2668 57.7308 33 50 33ZM56.5476 44.8615L50.0816 51.6563C49.736 52.0187 49.2584 52.2227 48.7591 52.2227C48.2599 52.2227 47.7799 52.0163 47.4367 51.6563L43.4548 47.4704C42.7588 46.7384 42.7876 45.5839 43.5196 44.8879C44.2493 44.1918 45.4037 44.2206 46.1022 44.9527L48.7615 47.7488L53.9026 42.3437C54.5986 41.6141 55.7531 41.5853 56.4852 42.2789C57.2148 42.9726 57.2436 44.1294 56.5476 44.8615Z" fill="#41A2EB"/>
</g>
<defs>
<clipPath id="clip0_227_36489">
<rect width="70" height="70" rx="8" fill="white"/>
</clipPath>
</defs>
</svg>
