<svg width="100" height="100" viewBox="0 0 100 100" fill="none" xmlns="http://www.w3.org/2000/svg">
<rect width="100" height="100" rx="8" fill="#F7F7F7"/>
<path d="M56.7746 24.8603C55.3346 22.4458 52.8015 21 49.9976 21C47.1936 21 44.6607 22.4458 43.2207 24.8603L18.1327 67.0135C16.6547 69.4948 16.6215 72.4771 18.0425 74.987C19.4634 77.5017 22.0297 79 24.9097 79H75.0904C77.9704 79 80.5366 77.5017 81.9575 74.987C83.3785 72.4723 83.3453 69.49 81.8673 67.0135L56.7746 24.8603ZM46.1054 37.7057C46.1054 35.5537 47.8591 33.7929 50.0024 33.7929C52.1458 33.7929 53.8993 35.5537 53.8993 37.7057V53.9581C53.8993 56.1102 52.1458 57.8709 50.0024 57.8709C47.8591 57.8709 46.1054 56.1102 46.1054 53.9581V37.7057ZM50.0024 71.4321C47.3744 71.4321 45.25 69.2944 45.25 66.6604C45.25 64.0264 47.3791 61.8839 50.0024 61.8839C52.6258 61.8839 54.7548 64.0216 54.7548 66.6604C54.7548 69.2944 52.6258 71.4321 50.0024 71.4321Z" fill="#538FEA"/>
</svg>
