<svg width="415" height="182" viewBox="0 0 415 182" fill="none" xmlns="http://www.w3.org/2000/svg">
<path fill-rule="evenodd" clip-rule="evenodd" d="M191.955 156.622V128.043H200.192V147.232L218.27 128.043H225.679V156.622H217.441V137.159L199.364 156.622H191.955Z" fill="white"/>
<path fill-rule="evenodd" clip-rule="evenodd" d="M35.2243 156.622H13.8334L16.3735 152.527H29.0423V142.721H11.7702V156.575H3.12628V128.036H35.6073H37.7643L35.2243 132.131H11.7702V138.626H35.2321L37.6862 142.556V152.668L35.2243 156.622Z" fill="white"/>
<path fill-rule="evenodd" clip-rule="evenodd" d="M50.9564 151.735L48.3695 156.622H39.5381L54.575 128.036H64.4068L79.4437 156.622H70.2762L59.319 135.802L53.1213 147.64H63.5237L60.9758 151.735H50.9564Z" fill="white"/>
<path fill-rule="evenodd" clip-rule="evenodd" d="M184.359 132.131H162.382V152.488L184.359 152.527L186.906 156.622H156.207L153.738 152.653V132.005L156.207 128.036H186.906L184.359 132.131Z" fill="white"/>
<path fill-rule="evenodd" clip-rule="evenodd" d="M184.585 140.281L182.037 144.377C175.965 144.377 170.447 144.377 164.374 144.377L166.922 140.281H182.428H184.585Z" fill="white"/>
<path fill-rule="evenodd" clip-rule="evenodd" d="M239.879 144.706V156.622H231.65V128.036H239.879V140.611H255.416L252.869 144.706H239.879Z" fill="white"/>
<path fill-rule="evenodd" clip-rule="evenodd" d="M299.996 156.622H281.895L284.443 152.527H293.814V141.529H279.91V156.622H271.681V128.036H279.91V137.434H300.012L302.458 141.364V152.668L299.996 156.622Z" fill="white"/>
<path fill-rule="evenodd" clip-rule="evenodd" d="M363.598 128.036L366.044 131.966V143.992L363.582 147.946H345.732L348.272 143.851H357.4V132.131H343.762V156.622H335.126V128.036H363.598Z" fill="white"/>
<path fill-rule="evenodd" clip-rule="evenodd" d="M330.289 152.527L327.741 156.623H318.487L321.035 152.527H330.289Z" fill="white"/>
<path fill-rule="evenodd" clip-rule="evenodd" d="M410.303 151.288H398.001L400.549 147.193H404.121V132.131H396.032V156.622H387.388V151.288H373.117L370.655 147.334V131.966L373.101 128.036H410.311L412.757 131.966V147.334L410.303 151.288ZM379.307 132.131V147.193H387.396V132.131H379.307Z" fill="white"/>
<path d="M313.501 128.036H305.349V156.622H313.501V128.036Z" fill="white"/>
<path d="M265.631 128.036H257.402V156.622H265.631V128.036Z" fill="white"/>
<path fill-rule="evenodd" clip-rule="evenodd" d="M150.408 128.036L147.86 132.131H126.384V152.488L147.86 152.527L150.408 156.622H120.209L117.74 152.653V132.005L120.209 128.036H150.408Z" fill="white"/>
<path fill-rule="evenodd" clip-rule="evenodd" d="M218.184 120.685L215.644 124.78H201.248L203.796 120.685H218.184Z" fill="white"/>
<path fill-rule="evenodd" clip-rule="evenodd" d="M90.3233 132.131V152.488L111.792 152.527L114.34 156.622H84.1412L81.6794 152.653V132.005L84.1491 128.036H114.34L111.792 132.131H90.3233Z" fill="white"/>
<path fill-rule="evenodd" clip-rule="evenodd" d="M169.978 56.1929L142.554 100.548H250.055L272.102 64.8458L251.97 32.478H184.78L176.879 19.6596H251.954L263.701 0.784912H142.53L190.97 79.1861L202.248 60.7743L196.722 51.8312H241.317L249.414 64.8458L239.403 81.1944H177.16L181.287 74.4949L169.978 56.1929Z" fill="white"/>
<path fill-rule="evenodd" clip-rule="evenodd" d="M26.3538 180.157H19.8592L20.6329 178.893H24.6891V175.858H19.2339V180.141H16.8112V171.339L27.1275 171.323L26.3538 172.586H19.2339V174.595H26.3616L26.3694 174.61L27.1041 175.81V178.941L26.3538 180.157Z" fill="white"/>
<path fill-rule="evenodd" clip-rule="evenodd" d="M158.177 172.586H151.494V178.878L158.177 178.893L158.95 180.157H149.83L149.079 178.933V172.547L149.83 171.323H158.95L158.177 172.586Z" fill="white"/>
<path fill-rule="evenodd" clip-rule="evenodd" d="M158.239 175.104L157.466 176.376H152.104L152.878 175.104H158.239Z" fill="white"/>
<path fill-rule="evenodd" clip-rule="evenodd" d="M371.523 169.064L370.749 170.327H366.591L367.365 169.064H371.523Z" fill="white"/>
<path fill-rule="evenodd" clip-rule="evenodd" d="M125.016 176.477V180.157H122.601V171.323H125.016V175.206H129.947L129.174 176.477H125.016Z" fill="white"/>
<path d="M132.964 171.323H130.549V180.157H132.964V171.323Z" fill="white"/>
<path fill-rule="evenodd" clip-rule="evenodd" d="M5.54125 172.586V178.878H11.4185V172.586H5.54125ZM13.0832 171.323L13.8334 172.555V178.933L13.0832 180.157H3.87656L3.12628 178.933V172.555L3.87656 171.323H13.0832Z" fill="white"/>
<path fill-rule="evenodd" clip-rule="evenodd" d="M43.7119 180.157V171.323H52.6918L53.4343 172.539V176.258L52.6918 177.474H46.7208L47.4945 176.211H51.0193V172.586H46.1268V180.157H43.7119Z" fill="white"/>
<path fill-rule="evenodd" clip-rule="evenodd" d="M66.3297 171.308V178.941L65.5872 180.157H56.2634L57.0371 178.894H63.9147V171.308H66.3297Z" fill="white"/>
<path fill-rule="evenodd" clip-rule="evenodd" d="M62.3672 177.192C62.6251 176.769 62.883 176.353 63.141 175.929C61.656 175.929 60.1633 175.929 58.6783 175.929C58.6783 174.391 58.6783 172.854 58.6783 171.316C57.8734 171.316 57.0684 171.316 56.2634 171.316C56.2634 172.869 56.2634 174.423 56.2634 175.976C56.5135 176.384 56.7636 176.792 57.0136 177.2C58.7956 177.192 60.5775 177.192 62.3672 177.192Z" fill="white"/>
<path fill-rule="evenodd" clip-rule="evenodd" d="M74.7156 173.669L72.4101 178.862H77.029L74.7156 173.669ZM76.0208 171.323L79.3736 178.862H81.1946L80.4053 180.157H67.9865L68.7759 178.862H70.0498L73.4026 171.323H76.0208Z" fill="white"/>
<path fill-rule="evenodd" clip-rule="evenodd" d="M98.7872 172.594V175.144H104.242V172.594H98.7872ZM106.337 175.834L106.657 176.367V178.941L105.907 180.164H99.4046L100.178 178.901H104.235V176.422H98.7794V180.156H96.3644V171.347L105.907 171.339L106.65 172.555V175.308L106.337 175.834Z" fill="white"/>
<path fill-rule="evenodd" clip-rule="evenodd" d="M111.948 178.65L111.159 180.157H108.689L113.254 171.323H116.036L120.6 180.157H118.029L114.59 173.52L112.605 177.379H115.973L115.2 178.65H111.948Z" fill="white"/>
<path fill-rule="evenodd" clip-rule="evenodd" d="M135.981 180.157V171.323H138.404V177.199L144.101 171.323H146.266V180.157H143.851V174.194L138.154 180.157H135.981Z" fill="white"/>
<path fill-rule="evenodd" clip-rule="evenodd" d="M167.469 180.157V171.323H169.884V177.199L175.59 171.323H177.755V180.157H175.34V174.194L169.634 180.157H167.469Z" fill="white"/>
<path fill-rule="evenodd" clip-rule="evenodd" d="M188.313 180.157H185.492L189.446 175.74L185.492 171.323H188.313L190.861 174.163L193.409 171.323H196.23L192.268 175.74L196.23 180.157H193.401L190.861 177.317L188.313 180.157Z" fill="white"/>
<path fill-rule="evenodd" clip-rule="evenodd" d="M217.637 175.763L213.62 171.323H211.455V180.157H213.87V174.391L217.637 178.446L221.412 174.391V180.157H223.827V171.323H221.662L217.637 175.763Z" fill="white"/>
<path fill-rule="evenodd" clip-rule="evenodd" d="M239.966 177.152L239.223 175.928V172.539L239.966 171.323H248.719V180.157H246.304V172.586H241.638V175.889H245.71L244.936 177.152H243.443L241.513 180.157H239.145L241.107 177.152H239.966Z" fill="white"/>
<path fill-rule="evenodd" clip-rule="evenodd" d="M272.775 180.157H270.422L274.361 171.323H276.964L280.895 180.157H278.55L275.658 173.669L272.775 180.157Z" fill="white"/>
<path fill-rule="evenodd" clip-rule="evenodd" d="M337.541 171.323L336.768 172.586H330.242V178.878L336.768 178.893L337.541 180.157H328.577L327.827 178.933V172.547L328.577 171.323H337.541Z" fill="white"/>
<path fill-rule="evenodd" clip-rule="evenodd" d="M32.2858 172.586V178.878H38.163V172.586H32.2858ZM39.8277 171.323L40.578 172.555V178.933L39.8277 180.157H30.6211L29.8708 178.933V172.555L30.6211 171.323H39.8277Z" fill="white"/>
<path fill-rule="evenodd" clip-rule="evenodd" d="M85.1103 172.586V178.878H90.9875V172.586H85.1103ZM92.6444 171.323L93.3947 172.555V178.933L92.6444 180.157H83.4378L82.6875 178.933V172.555L83.4378 171.323H92.6444Z" fill="white"/>
<path fill-rule="evenodd" clip-rule="evenodd" d="M198.301 180.157V171.323H200.716V177.199L206.421 171.323H208.586V180.157H206.171V174.194L200.466 180.157H198.301Z" fill="white"/>
<path fill-rule="evenodd" clip-rule="evenodd" d="M226.375 180.157V171.323H228.797V177.199L234.495 171.323H236.66V180.157H234.245V174.194L228.539 180.157H226.375Z" fill="white"/>
<path fill-rule="evenodd" clip-rule="evenodd" d="M263.388 173.669L261.075 178.862H265.693L263.388 173.669ZM264.693 171.323L268.046 178.862H269.867L269.078 180.157H256.659L257.448 178.862H258.73L262.083 171.323H264.693Z" fill="white"/>
<path fill-rule="evenodd" clip-rule="evenodd" d="M283.232 177.152L282.482 175.928V172.539L283.224 171.323H291.985V180.157H289.57V172.586H284.897V175.889H288.969L288.195 177.152H286.702L284.779 180.157H282.404L284.365 177.152H283.232Z" fill="white"/>
<path fill-rule="evenodd" clip-rule="evenodd" d="M312.071 180.157H305.568L306.342 178.893H310.406V175.858H304.951V180.141H302.528V171.339L312.844 171.323L312.071 172.586H304.951V174.595H312.071L312.086 174.61L312.821 175.81V178.941L312.071 180.157Z" fill="white"/>
<path fill-rule="evenodd" clip-rule="evenodd" d="M317.69 178.65L316.901 180.157H314.431L318.995 171.323H321.778L326.342 180.157H323.77L320.332 173.52L318.347 177.379H321.715L320.941 178.65H317.69Z" fill="white"/>
<path fill-rule="evenodd" clip-rule="evenodd" d="M349.163 171.323L348.397 172.586H341.871V178.878L348.389 178.893L349.163 180.157H340.206L339.456 178.933V172.547L340.206 171.323H349.163Z" fill="white"/>
<path fill-rule="evenodd" clip-rule="evenodd" d="M360.159 172.586H353.485V178.878L360.159 178.893L360.933 180.157H351.813L351.062 178.933L351.07 172.547L351.82 171.323H360.933L360.159 172.586Z" fill="white"/>
<path fill-rule="evenodd" clip-rule="evenodd" d="M360.23 175.104L359.456 176.376H354.087L354.86 175.104H360.23Z" fill="white"/>
<path fill-rule="evenodd" clip-rule="evenodd" d="M363.629 180.157V171.323H366.044V177.199L371.749 171.323H373.914V180.157H371.499V174.195L365.794 180.157H363.629Z" fill="white"/>
<path fill-rule="evenodd" clip-rule="evenodd" d="M379.315 176.477V180.157H376.9V171.323H379.315V175.206H384.246L383.473 176.477H379.315Z" fill="white"/>
<path d="M387.263 171.323H384.848V180.157H387.263V171.323Z" fill="white"/>
<path fill-rule="evenodd" clip-rule="evenodd" d="M392.578 172.586V178.878H398.455V172.586H392.578ZM400.119 171.323L400.87 172.555V178.933L400.119 180.157H390.913L390.163 178.933V172.555L390.913 171.323H400.119Z" fill="white"/>
<path fill-rule="evenodd" clip-rule="evenodd" d="M405.786 172.594V175.144H411.241V172.594H405.786ZM413.335 175.834L413.656 176.367V178.941L412.905 180.164H406.403L407.177 178.901H411.233V176.422H405.778V180.156H403.363V171.347L412.905 171.339L413.648 172.555V175.308L413.335 175.834Z" fill="white"/>
</svg>
