<svg width="51" height="50" viewBox="0 0 51 50" fill="none" xmlns="http://www.w3.org/2000/svg">
<rect x="0.5" width="50" height="50" rx="4" fill="#F7F7F7"/>
<path d="M17.6315 16.5111C16.5751 16.5111 11.2045 22.9023 11.2045 23.9611V29.0876C11.2532 29.0955 11.3026 29.0995 11.3523 29.0995C11.5129 29.0995 11.6708 29.0575 11.8103 28.9776L15.4827 26.8749C16.472 26.3083 17.2943 25.4896 17.8663 24.5019C18.4382 23.5142 18.7395 22.3925 18.7396 21.2505V16.5111H17.6315Z" fill="#41A2EB"/>
<path fill-rule="evenodd" clip-rule="evenodd" d="M10.9884 10.6627C11.1034 10.6133 11.2272 10.5878 11.3523 10.5878C11.4774 10.5878 11.6011 10.6133 11.7161 10.6627L17.6204 13.1995C17.9527 13.3423 18.2359 13.5796 18.4348 13.8822C18.6338 14.1847 18.7398 14.5392 18.7396 14.9015V16.5111H17.6315C16.5751 16.5111 11.2045 22.9023 11.2045 23.9611V29.0876C11.0958 29.0699 10.9906 29.0328 10.8943 28.9776L7.22183 26.8749C6.23227 26.3081 5.40981 25.4892 4.83784 24.5011C4.26587 23.5131 3.96473 22.391 3.96494 21.2487V14.9015C3.96498 14.5393 4.07104 14.1851 4.26997 13.8827C4.46891 13.5804 4.75198 13.3431 5.08412 13.2004L10.9884 10.6645V10.6627ZM14.7754 18.6471C14.9436 18.4725 15.0367 18.2387 15.0346 17.9961C15.0325 17.7534 14.9353 17.5213 14.7641 17.3497C14.5929 17.1781 14.3613 17.0807 14.1192 17.0786C13.8771 17.0765 13.6438 17.1698 13.4697 17.3384L10.4289 20.3861L9.23488 19.1894C9.06072 19.0208 8.82747 18.9275 8.58535 18.9296C8.34323 18.9317 8.11163 19.0291 7.94042 19.2007C7.76921 19.3723 7.67209 19.6044 7.66999 19.8471C7.66789 20.0897 7.76096 20.3235 7.92917 20.4981L9.776 22.3491C9.94917 22.5226 10.184 22.6201 10.4289 22.6201C10.6737 22.6201 10.9085 22.5226 11.0817 22.3491L14.7754 18.6471Z" fill="#41A2EB"/>
<path fill-rule="evenodd" clip-rule="evenodd" d="M43.5561 25.0687L40.8883 24.3757L39.2557 19.449C38.6751 17.6957 37.038 16.5111 35.1941 16.5111H20.8081V21.2507C20.8079 22.7582 20.4102 24.2388 19.6552 25.5426C18.9003 26.8464 17.8148 27.9269 16.509 28.6749L12.8363 30.7777C12.3844 31.0365 11.8728 31.1726 11.3523 31.1726C11.3029 31.1726 11.2537 31.1714 11.2045 31.169V33.1777C11.2045 34.2365 12.0615 35.0939 13.1178 35.0939H14.6293C14.6293 37.6779 16.7273 39.7807 19.304 39.7807C21.8822 39.7807 23.9787 37.6794 23.9787 35.0939H32.8967C32.8967 37.6779 34.9947 39.7807 37.5714 39.7807C40.1496 39.7807 42.2461 37.6794 42.2461 35.0939H43.1912C44.2476 35.0939 45.1045 34.235 45.1045 33.1777V26.9523C45.1045 26.0327 44.4559 25.2435 43.5561 25.0687ZM17.0952 35.0939C17.0952 36.3156 18.0865 37.3092 19.304 37.3092C20.5214 37.3092 21.5128 36.3156 21.5128 35.0939C21.5128 33.8737 20.5214 32.8801 19.304 32.8801C18.0865 32.8801 17.0952 33.8737 17.0952 35.0939ZM32.4298 18.9826V23.9611H38.152L36.9139 20.2279C36.6672 19.4831 35.9757 18.9826 35.1927 18.9826H32.4298ZM35.3641 35.0939C35.3641 36.3156 36.3555 37.3092 37.5729 37.3092C38.7903 37.3092 39.7817 36.3156 39.7817 35.0939C39.7817 33.8737 38.7903 32.8801 37.5729 32.8801C36.3555 32.8801 35.3641 33.8737 35.3641 35.0939Z" fill="#286ED1"/>
<path d="M18.5217 19.7926C18.5217 15.8103 15.2939 12.5825 11.3117 12.5825C7.32944 12.5825 4.10165 15.8103 4.10165 19.7926C4.10165 23.7748 7.32944 27.0026 11.3117 27.0026C15.2939 27.0026 18.5217 23.7748 18.5217 19.7926ZM10.5201 22.8703C10.2457 22.8703 9.98284 22.756 9.79423 22.5545L7.74239 20.3498C7.36946 19.9497 7.39231 19.3225 7.79239 18.9495C8.1939 18.578 8.81975 18.5995 9.19269 18.9995L10.5201 20.4255L13.4307 17.2992C13.8022 16.8991 14.4323 16.8777 14.831 17.2492C15.231 17.6221 15.2539 18.2494 14.8795 18.6495L11.2445 22.5531C11.0588 22.756 10.7944 22.8703 10.5201 22.8703Z" fill="#41A2EB"/>
<path d="M10.5201 22.8703C10.2457 22.8703 9.98284 22.756 9.79423 22.5545L7.74239 20.3498C7.36946 19.9497 7.39231 19.3225 7.79239 18.9495C8.1939 18.578 8.81975 18.5995 9.19269 18.9995L10.5201 20.4255L13.4307 17.2992C13.8022 16.8991 14.4323 16.8777 14.831 17.2492C15.231 17.6221 15.2539 18.2494 14.8795 18.6495L11.2445 22.5531C11.0588 22.756 10.7944 22.8703 10.5201 22.8703Z" fill="white"/>
</svg>
