<svg width="51" height="50" viewBox="0 0 51 50" fill="none" xmlns="http://www.w3.org/2000/svg">
<rect x="0.5" width="50" height="50" rx="4" fill="#F7F7F7"/>
<path d="M21.9732 19.5228V28.46C21.9732 28.6957 22.2167 28.8527 22.4314 28.7546L28.935 25.7829C29.0502 25.7305 29.1235 25.6153 29.1235 25.4884V16.5485C29.1235 16.3142 28.88 16.1571 28.6653 16.2553L22.1617 19.2269C22.0465 19.2806 21.9732 19.3958 21.9732 19.5228Z" fill="#41A2EB"/>
<path d="M14.6543 14.6101L20.7809 17.4116C20.866 17.4509 20.9642 17.4509 21.0493 17.4116L27.1759 14.6101C27.4272 14.4949 27.4272 14.1375 27.1759 14.0236L21.0493 11.2209C20.9642 11.1842 20.866 11.1842 20.7809 11.2209L14.6543 14.0236C14.403 14.1375 14.403 14.4962 14.6543 14.6101Z" fill="#41A2EB"/>
<path d="M12.8976 25.7829L19.4025 28.7546C19.6159 28.8527 19.8607 28.6957 19.8607 28.46V19.5228C19.8607 19.3958 19.7874 19.2793 19.6722 19.2269L13.1672 16.2553C12.9526 16.1571 12.7091 16.3142 12.7091 16.5485V25.4884C12.7078 25.614 12.7824 25.7305 12.8976 25.7829Z" fill="#41A2EB"/>
<path d="M40.9736 32.8873V8.81295C40.9736 8.36393 40.6083 8 40.1606 8H34.0916C33.6426 8 33.2787 8.36262 33.2787 8.81295V10.7753H35.728C36.177 10.7753 36.541 11.1379 36.541 11.5882C36.541 12.0373 36.1757 12.4012 35.728 12.4012H33.2787V15.1765H35.728C36.177 15.1765 36.541 15.5417 36.541 15.9895C36.541 16.4385 36.1757 16.8024 35.728 16.8024H33.2787V19.5777H35.728C36.177 19.5777 36.541 19.9403 36.541 20.3907C36.541 20.8397 36.1757 21.2036 35.728 21.2036H33.2787V23.9789H35.728C36.177 23.9789 36.541 24.3441 36.541 24.7919C36.541 25.2409 36.1757 25.6048 35.728 25.6048H33.2787V28.3801H35.728C36.177 28.3801 36.541 28.7427 36.541 29.1931C36.541 29.6434 36.1757 30.006 35.728 30.006H33.2787V32.7813H30.5047V35.2306C30.5047 35.6797 30.1408 36.0436 29.6917 36.0436C29.2427 36.0436 28.8788 35.6783 28.8788 35.2306V32.7813H26.1035V35.2306C26.1035 35.6797 25.7396 36.0436 25.2905 36.0436C24.8415 36.0436 24.4776 35.6783 24.4776 35.2306V32.7813H21.7023V35.2306C21.7023 35.6797 21.3384 36.0436 20.8893 36.0436C20.4403 36.0436 20.0764 35.6783 20.0764 35.2306V32.7813H17.3011V35.2306C17.3011 35.6797 16.9372 36.0436 16.4881 36.0436C16.0391 36.0436 15.6752 35.6783 15.6752 35.2306V32.7813H12.8999V35.2306C12.8999 35.6797 12.536 36.0436 12.0869 36.0436C11.6379 36.0436 11.274 35.6783 11.274 35.2306V32.7813H9.31295C8.86393 32.7813 8.5 33.1465 8.5 33.5943V39.6633C8.5 40.1123 8.86393 40.4762 9.31295 40.4762H33.3873C34.3561 41.4175 35.6744 42 37.1275 42C40.09 42 42.5 39.5899 42.5 36.6274C42.4974 35.1743 41.9148 33.8561 40.9736 32.8873ZM37.1261 39.9774C35.279 39.9774 33.7761 38.4746 33.7761 36.6288C33.7761 34.7829 35.279 33.2801 37.1261 33.2801C38.9733 33.2801 40.4761 34.7829 40.4761 36.6288C40.4748 38.4746 38.972 39.9774 37.1261 39.9774Z" fill="#538FEA"/>
<path d="M37.1261 34.9697C36.211 34.9697 35.4688 35.712 35.4688 36.6271C35.4688 37.5421 36.211 38.2857 37.1261 38.2857C38.0411 38.2857 38.7834 37.5434 38.7834 36.6271C38.7834 35.7107 38.0411 34.9697 37.1261 34.9697Z" fill="#538FEA"/>
</svg>
