<svg width="51" height="50" viewBox="0 0 51 50" fill="none" xmlns="http://www.w3.org/2000/svg">
<rect x="0.5" width="50" height="50" rx="4" fill="#F7F7F7"/>
<path d="M19.7895 14.2453H29.2357C29.8528 14.2453 30.3522 13.7458 30.3522 13.1301V11.3595C30.3522 10.7437 29.8528 10.2429 29.2357 10.2429H27.4823C27.1493 8.9084 25.9495 7.91211 24.5119 7.91211C23.0756 7.91211 21.8759 8.9084 21.5416 10.2429H19.7882C19.1724 10.2429 18.6716 10.7424 18.6716 11.3595V13.1301C18.673 13.7458 19.1724 14.2453 19.7895 14.2453ZM24.5119 9.71837C25.2083 9.71837 25.7738 10.2839 25.7738 10.9802C25.7738 11.6766 25.2083 12.2421 24.5119 12.2421C23.8143 12.2421 23.2501 11.6766 23.2501 10.9802C23.2501 10.2839 23.8156 9.71837 24.5119 9.71837Z" fill="#538FEA"/>
<path d="M36.1585 30.2783V14.6336C36.1585 13.1049 34.9098 11.8562 33.381 11.8562H31.9923V13.1286C31.9923 14.6508 30.7595 15.8836 29.2373 15.8836H19.7885C18.2742 15.8836 17.0335 14.6508 17.0335 13.1286V11.8562H15.6448C14.116 11.8562 12.8673 13.1049 12.8673 14.6336V36.5282C12.8673 38.0583 14.116 39.3056 15.6448 39.3056H29.2056C29.1739 39.0321 29.1594 38.7599 29.1594 38.4864C29.1594 34.3519 32.1945 30.9112 36.1585 30.2783ZM23.9626 20.9153H31.4453C31.8972 20.9153 32.2645 21.2826 32.2645 21.7345C32.2645 22.1877 31.8972 22.5537 31.4453 22.5537H23.9626C23.5093 22.5537 23.1433 22.1864 23.1433 21.7345C23.1433 21.2826 23.5093 20.9153 23.9626 20.9153ZM23.9626 26.963H31.4453C31.8972 26.963 32.2645 27.3304 32.2645 27.7823C32.2645 28.2355 31.8972 28.6015 31.4453 28.6015H23.9626C23.5093 28.6015 23.1433 28.2341 23.1433 27.7823C23.1433 27.329 23.5093 26.963 23.9626 26.963ZM21.8484 32.2603L19.4529 34.9293C19.2969 35.1011 19.0789 35.1949 18.8437 35.1949C18.6098 35.1949 18.3918 35.1011 18.2346 34.9293L16.9701 33.5168C16.6662 33.1812 16.6886 32.658 17.0322 32.3541C17.3678 32.0581 17.8831 32.0806 18.187 32.4162L18.8424 33.1495L20.6288 31.1596C20.9328 30.824 21.4481 30.8002 21.7837 31.1054C22.1206 31.4027 22.1523 31.9246 21.8484 32.2603ZM21.8484 26.2138L19.4529 28.8829C19.2969 29.0547 19.0789 29.1564 18.8437 29.1564C18.6098 29.1564 18.3918 29.0547 18.2346 28.8829L16.9701 27.4704C16.6662 27.1348 16.6886 26.6116 17.0322 26.3156C17.3678 26.0117 17.8831 26.0421 18.187 26.3777L18.8424 27.111L20.6288 25.1211C20.9328 24.7855 21.4481 24.7538 21.7837 25.059C22.1206 25.3629 22.1523 25.8782 21.8484 26.2138ZM21.8484 20.1661L19.4529 22.8352C19.2969 23.0069 19.0789 23.1087 18.8437 23.1087C18.6098 23.1087 18.3918 23.0069 18.2346 22.8352L16.9701 21.4227C16.6662 21.087 16.6886 20.5717 17.0322 20.2678C17.3678 19.9639 17.8831 19.9943 18.187 20.3299L18.8424 21.0633L20.6288 19.0733C20.9328 18.7377 21.4481 18.706 21.7837 19.0112C22.1206 19.3165 22.1523 19.8305 21.8484 20.1661ZM26.7796 34.6479H23.9626C23.5093 34.6479 23.1433 34.2806 23.1433 33.8287C23.1433 33.3768 23.5107 33.0094 23.9626 33.0094H26.7796C27.2315 33.0094 27.5989 33.3768 27.5989 33.8287C27.5989 34.2819 27.2315 34.6479 26.7796 34.6479Z" fill="#538FEA"/>
<path d="M44.1339 38.4839C44.1339 34.8013 41.149 31.8164 37.4664 31.8164C33.7839 31.8164 30.799 34.8013 30.799 38.4839C30.799 42.1664 33.7839 45.1513 37.4664 45.1513C41.149 45.1513 44.1339 42.1664 44.1339 38.4839ZM36.7344 41.33C36.4807 41.33 36.2376 41.2243 36.0632 41.038L34.1657 38.9992C33.8209 38.6292 33.842 38.0491 34.212 37.7043C34.5833 37.3607 35.162 37.3806 35.5069 37.7505L36.7344 39.0692L39.4259 36.1781C39.7695 35.8082 40.3522 35.7883 40.7209 36.1319C41.0908 36.4768 41.112 37.0568 40.7658 37.4268L37.4043 41.0367C37.2325 41.2243 36.9881 41.33 36.7344 41.33Z" fill="#41A2EB"/>
</svg>
