<svg width="70" height="70" viewBox="0 0 70 70" fill="none" xmlns="http://www.w3.org/2000/svg">
<path d="M28.209 46.1734L20.8539 39.4254C20.5206 39.1207 20.0873 38.9635 19.6253 38.9826C19.1729 39.004 18.7539 39.2064 18.4515 39.5421C17.9396 40.1159 17.8776 40.9636 18.3039 41.6041L18.53 41.947C19.7063 43.7328 21.0373 45.4138 22.5041 46.9686L23.9351 48.4877C24.1422 48.7068 24.2518 48.9925 24.2422 49.2973C24.2327 49.5973 24.1088 49.8759 23.8874 50.0878C23.666 50.2949 23.3803 50.4021 23.0779 50.395C22.7779 50.3854 22.4969 50.2592 22.2897 50.0378L21.0016 48.6735C19.3611 46.9377 17.8753 45.0614 16.561 43.0685L16.4181 42.8518C15.4442 41.3731 15.5466 39.4112 16.7181 38.0873C16.8252 37.9682 16.9347 37.8492 17.0514 37.7468L13.999 32.0299C13.6466 31.3728 12.9227 30.9537 12.1774 30.9823C11.6131 31.0037 11.1012 31.2489 10.7345 31.6823C10.3702 32.1132 10.2083 32.6609 10.2821 33.2228L12.3132 48.6639C12.5013 50.1021 13.237 51.414 14.3632 52.3284L20.2492 57.0976C20.6088 57.3881 20.8421 57.8071 20.9016 58.2667L21.3183 61.4978C21.3731 61.9311 21.7445 62.2573 22.1802 62.2573H30.5305C31.0567 62.2573 31.4615 61.793 31.3925 61.2716L29.7425 48.9925C29.5591 47.9115 29.0138 46.9091 28.209 46.1734Z" fill="#538FEA"/>
<path d="M59.4006 31.6846C59.034 31.2513 58.5221 31.006 57.9578 30.9846C57.2149 30.956 56.4886 31.3727 56.1362 32.0323L53.0838 37.7492C53.1981 37.8516 53.3099 37.9706 53.4171 38.0897C54.5886 39.4159 54.6886 41.3779 53.7172 42.8541L53.5743 43.0708C52.2599 45.0638 50.7742 46.94 49.1336 48.6758L47.8455 50.0402C47.6383 50.2616 47.3597 50.3878 47.0573 50.3973C46.7549 50.4045 46.4668 50.2949 46.2478 50.0902C46.0263 49.8806 45.9025 49.5996 45.8929 49.2996C45.8834 48.9949 45.993 48.7092 46.2001 48.4901L47.5788 47.0281C49.0812 45.4352 50.4408 43.7161 51.6456 41.8875L51.8314 41.6065C52.2576 40.966 52.1957 40.1183 51.6837 39.5445C51.3813 39.2064 50.9622 39.004 50.5098 38.9849C50.0479 38.9683 49.6145 39.1254 49.2812 39.4278L41.9262 46.1757C41.1214 46.9114 40.5762 47.9139 40.3928 48.9925L38.7427 61.2716C38.6737 61.793 39.0785 62.2573 39.6047 62.2573H47.955C48.3931 62.2573 48.7622 61.9335 48.8169 61.4978L49.2336 58.2667C49.2932 57.8071 49.5265 57.3857 49.8884 57.0952L55.7695 52.3331C56.8982 51.4188 57.6339 50.1068 57.822 48.6663L59.8531 33.2252C59.9269 32.6633 59.7649 32.1156 59.4006 31.6846Z" fill="#538FEA"/>
<path d="M49.7075 33.3776V17.4341C49.7075 17.015 49.2718 16.7364 48.8909 16.9102L37.2903 22.2105C37.0856 22.3033 36.9522 22.5105 36.9522 22.7367V38.6778C36.9522 39.0969 37.388 39.3778 37.769 39.2016L49.3694 33.899C49.5742 33.8086 49.7075 33.6038 49.7075 33.3776Z" fill="#41A2EB"/>
<path d="M46.236 12.9291L35.3069 7.92891C35.1545 7.86224 34.9783 7.86224 34.8283 7.92891L23.8993 12.9291C23.4493 13.1315 23.4493 13.772 23.8993 13.9768L34.8283 18.9722C34.9807 19.0413 35.1569 19.0413 35.3069 18.9722L46.236 13.9768C46.686 13.772 46.686 13.1339 46.236 12.9291Z" fill="#41A2EB"/>
<path d="M32.8448 22.2128L21.2443 16.9126C20.861 16.7364 20.4277 17.0174 20.4277 17.4364V33.3799C20.4277 33.6061 20.5586 33.8109 20.7657 33.9038L32.3663 39.2064C32.7472 39.3826 33.1829 39.1016 33.1829 38.6825V22.7414C33.1829 22.5128 33.0496 22.3057 32.8448 22.2128Z" fill="#41A2EB"/>
</svg>
