<svg width="70" height="70" viewBox="0 0 70 70" fill="none" xmlns="http://www.w3.org/2000/svg">
<rect width="70" height="70" rx="8" fill="white"/>
<path d="M43.2299 40.7578H26.875V43.7373H43.2299V40.7578Z" fill="#41A2EB"/>
<path d="M43.2299 35.4922H26.875V38.4735H43.2299V35.4922Z" fill="#41A2EB"/>
<path d="M43.2299 46.0312H26.875V49.0125H43.2299V46.0312Z" fill="#41A2EB"/>
<path d="M55.4887 54.2859C56.5205 54.2859 57.3555 53.4492 57.3555 52.4191V28.3244C57.3555 27.0447 56.6524 25.8793 55.5221 25.2833L36.7747 15.3973C36.2738 15.1318 35.7218 15 35.1716 15C34.6214 15 34.0712 15.1318 33.5685 15.3973L14.8334 25.2833C13.7031 25.881 13 27.0447 13 28.3244V52.4191C13 53.4509 13.8367 54.2859 14.8668 54.2859H24.5771V34.3432C24.5771 33.7104 25.0904 33.1971 25.7232 33.1971H44.3704C45.0032 33.1971 45.5165 33.7104 45.5165 34.3432V54.2859H55.4887ZM37.8945 26.767H32.4645C31.8317 26.767 31.3184 26.2537 31.3184 25.6209C31.3184 24.988 31.8317 24.4747 32.4645 24.4747H37.8945C38.5273 24.4747 39.0406 24.988 39.0406 25.6209C39.0406 26.2537 38.5291 26.767 37.8945 26.767Z" fill="#538FEA"/>
<path d="M43.2299 51.3047H26.875V54.286H43.2299V51.3047Z" fill="#41A2EB"/>
</svg>
