<svg width="70" height="70" viewBox="0 0 70 70" fill="none" xmlns="http://www.w3.org/2000/svg">
<path d="M56.2484 43.4712C55.6684 42.7296 54.6719 42.3715 53.7473 42.568L45.7225 44.2945C45.7186 44.4891 45.6932 44.6915 45.6641 44.8939C45.341 47.1109 43.5289 48.8159 41.3042 49.0825L40.9791 49.1215C37.9856 49.4816 34.9668 49.5828 31.9558 49.4173L29.5501 49.2889C29.1686 49.2655 28.8163 49.1001 28.5613 48.8178C28.3063 48.5298 28.1759 48.1619 28.1954 47.7824C28.2187 47.397 28.3861 47.0486 28.6683 46.7936C28.9545 46.5386 29.3223 46.4082 29.7038 46.4277L32.238 46.5639C34.9804 46.7119 37.7326 46.6262 40.4595 46.3012L40.9675 46.2389C41.9368 46.126 42.7036 45.3728 42.8399 44.4074C42.9197 43.839 42.7718 43.2707 42.4214 42.8133C42.0613 42.3559 41.5553 42.0639 40.9889 41.99L28.4465 40.4017C27.0743 40.2246 25.6612 40.5205 24.47 41.227L11.7466 49.3628C10.9213 49.8903 10.75 51.0231 11.3846 51.7705L17.5409 59.0441C18.0665 59.6669 18.9735 59.7993 19.6566 59.3555L22.7397 57.3605C23.2321 57.0413 23.8258 56.9264 24.4019 57.0354L33.8282 58.8222C35.6344 59.1648 37.501 58.8008 39.0464 57.8062L55.6373 47.1381C56.2387 46.7469 56.6377 46.1455 56.7545 45.4389C56.8713 44.7305 56.6902 44.0337 56.2484 43.4712Z" fill="#538FEA"/>
<path d="M58.3823 20.4587L55.529 20.0441C55.1708 19.18 55.0754 18.9503 54.7173 18.0841L56.4418 15.7757C56.9012 15.1587 56.8389 14.2984 56.2958 13.7535L53.9543 11.412C53.4113 10.869 52.551 10.8067 51.934 11.266L49.6237 12.9905C48.7595 12.6304 48.5278 12.537 47.6637 12.1789L47.2491 9.32547C47.1381 8.56444 46.4861 8 45.7173 8H42.4065C41.6377 8 40.9857 8.56249 40.8747 9.32547L40.4601 12.1789C39.5959 12.537 39.3643 12.6304 38.4982 12.9905L36.1879 11.266C35.5709 10.8067 34.7106 10.867 34.1675 11.412L31.826 13.7535C31.283 14.2965 31.2207 15.1568 31.6801 15.7738L33.4045 18.0841C33.0464 18.9503 32.951 19.18 32.5929 20.0441L29.7395 20.4587C28.9785 20.5677 28.4141 21.2217 28.4141 21.9905V25.3013C28.4141 26.0701 28.9785 26.7222 29.7395 26.8331L32.5929 27.2477C32.951 28.1119 33.0464 28.3435 33.4045 29.2096L31.6801 31.518C31.2207 32.135 31.283 32.9953 31.826 33.5403L34.1675 35.8798C34.7125 36.4229 35.5728 36.4871 36.1879 36.0258L38.4982 34.3013C39.3624 34.6595 39.594 34.7548 40.4601 35.1129L40.8747 37.9663C40.9857 38.7254 41.6377 39.2918 42.4065 39.2918H45.7173C46.4861 39.2918 47.1381 38.7274 47.2491 37.9663L47.6637 35.1129C48.5278 34.7548 48.7595 34.6595 49.6237 34.3013L51.934 36.0258C52.5491 36.4851 53.4094 36.4229 53.9543 35.8798L56.2958 33.5403C56.8389 32.9953 56.9012 32.135 56.4418 31.518L54.7134 29.2018C55.0696 28.3396 55.165 28.1099 55.5231 27.2477L58.3843 26.8311C59.1453 26.7202 59.7098 26.0682 59.7098 25.2994V21.9886C59.7078 21.2217 59.1434 20.5677 58.3823 20.4587ZM49.8514 22.0703L43.6074 28.3123C43.2279 28.6919 42.7296 28.8807 42.2352 28.8807C41.7389 28.8807 41.2406 28.6919 40.863 28.3123L37.7625 25.2118C37.0034 24.4527 37.0034 23.2245 37.7625 22.4654C38.5216 21.7063 39.7497 21.7063 40.5088 22.4654L42.2372 24.1938L47.107 19.324C47.868 18.5649 49.0981 18.5688 49.8533 19.324C50.6085 20.0831 50.6085 21.3112 49.8514 22.0703Z" fill="#41A2EB"/>
</svg>
