<svg width="285" height="32" viewBox="0 0 285 32" fill="none" xmlns="http://www.w3.org/2000/svg">
<path fill-rule="evenodd" clip-rule="evenodd" d="M9.37134 26.661L11.0498 24.1185L12.2013 25.8953H14.1854L14.181 23.8731L16.7629 19.9937H28.0253L30.3725 23.5812L28.3707 26.661H9.37134Z" fill="white"/>
<path fill-rule="evenodd" clip-rule="evenodd" d="M8.04264 19.486L0.00885942 31.8477H31.4929L37.9545 21.8974L32.0554 12.8736H12.3784L10.0622 9.30301L32.051 9.29877L35.4921 4.04018H0L14.1898 25.8953L17.4892 20.7594L15.8727 18.2676H28.9376L31.3069 21.8932L28.3751 26.4537H10.1463L11.3509 24.5838L8.04264 19.486Z" fill="#255394"/>
<path fill-rule="evenodd" clip-rule="evenodd" d="M62.4323 32H58.6945L59.1418 31.3062H61.4713V29.6478H58.3357V31.9915H56.9495V27.1729L62.8752 27.1645L62.4323 27.8583H58.3357V28.954H62.4323L62.4412 28.9625L62.8619 29.6224V31.3316L62.4323 32Z" fill="#41A2EB"/>
<path fill-rule="evenodd" clip-rule="evenodd" d="M138.182 27.8583H134.347V31.2977L138.182 31.3062L138.625 32H133.386L132.956 31.3274V27.8371L133.386 27.1645H138.625L138.182 27.8583Z" fill="#41A2EB"/>
<path fill-rule="evenodd" clip-rule="evenodd" d="M138.222 29.2375L137.774 29.927H134.692L135.135 29.2375H138.222Z" fill="#41A2EB"/>
<path fill-rule="evenodd" clip-rule="evenodd" d="M260.783 25.9334L260.341 26.623H257.949L258.392 25.9334H260.783Z" fill="#41A2EB"/>
<path fill-rule="evenodd" clip-rule="evenodd" d="M119.129 29.982V32H117.739V27.1645H119.129V29.2925H121.964L121.516 29.982H119.129Z" fill="#41A2EB"/>
<path d="M123.7 27.1645H122.309V31.9958H123.7V27.1645Z" fill="#41A2EB"/>
<path fill-rule="evenodd" clip-rule="evenodd" d="M50.4703 27.8583V31.2977H53.845V27.8583H50.4703ZM54.806 27.1645L55.24 27.8371V31.3274L54.8104 32H49.5181L49.0885 31.3274V27.8371L49.5225 27.1645H54.806Z" fill="#41A2EB"/>
<path fill-rule="evenodd" clip-rule="evenodd" d="M72.4059 32V27.1645H77.5654L77.9906 27.8329V29.8636L77.5654 30.532H74.1376L74.5804 29.8382H76.6044V27.8583H73.7921V32H72.4059Z" fill="#41A2EB"/>
<path fill-rule="evenodd" clip-rule="evenodd" d="M85.4043 27.1602V31.3316L84.9748 32H79.616L80.0633 31.3062H84.0137V27.1602H85.4043Z" fill="#41A2EB"/>
<path fill-rule="evenodd" clip-rule="evenodd" d="M83.1235 30.3755C83.2697 30.147 83.4203 29.9143 83.5664 29.6817C82.7117 29.6817 81.8569 29.6817 81.0022 29.6817C81.0022 28.8398 81.0022 27.9979 81.0022 27.156C80.5416 27.156 80.0766 27.156 79.616 27.156C79.616 28.0063 79.616 28.8567 79.616 29.7028C79.7577 29.927 79.9038 30.147 80.0456 30.3712C81.073 30.3755 82.0961 30.3755 83.1235 30.3755Z" fill="#41A2EB"/>
<path fill-rule="evenodd" clip-rule="evenodd" d="M90.2228 28.4506L88.8942 31.2893H91.5515L90.2228 28.4506ZM90.9713 27.1645L92.8978 31.2893H93.943L93.4868 31.9958H86.3521L86.8083 31.2893H87.5434L89.47 27.1645H90.9713Z" fill="#41A2EB"/>
<path fill-rule="evenodd" clip-rule="evenodd" d="M104.054 27.8625V29.2586H107.189V27.8625H104.054ZM108.39 29.6309L108.576 29.9186V31.3274L108.146 31.9958H104.413L104.855 31.302H107.185V29.944H104.049V31.9873H102.659V27.1687L108.142 27.1645L108.567 27.8287V29.3348L108.39 29.6309Z" fill="#41A2EB"/>
<path fill-rule="evenodd" clip-rule="evenodd" d="M111.618 31.1708L111.166 32H109.745L112.367 27.1645H113.965L116.592 32H115.108L113.137 28.366L111.995 30.4812H113.93L113.487 31.1708H111.618Z" fill="#41A2EB"/>
<path fill-rule="evenodd" clip-rule="evenodd" d="M125.432 32V27.1645H126.818V30.3797L130.095 27.1645H131.34V32H129.953V28.7383L126.676 32H125.432Z" fill="#41A2EB"/>
<path fill-rule="evenodd" clip-rule="evenodd" d="M143.523 32V27.1645H144.914V30.3797L148.187 27.1645H149.431V32H148.045V28.7383L144.768 32H143.523Z" fill="#41A2EB"/>
<path fill-rule="evenodd" clip-rule="evenodd" d="M155.503 32H153.877L156.154 29.5844L153.877 27.1645H155.498L156.964 28.7213L158.426 27.1645H160.051L157.775 29.5844L160.051 32H158.426L156.964 30.4432L155.503 32Z" fill="#41A2EB"/>
<path fill-rule="evenodd" clip-rule="evenodd" d="M172.354 29.597L170.042 27.1645H168.798V32H170.189V28.844L172.354 31.0651L174.52 28.844V32H175.906V27.1645H174.662L172.354 29.597Z" fill="#41A2EB"/>
<path fill-rule="evenodd" clip-rule="evenodd" d="M185.184 30.3543L184.755 29.6859V27.8329L185.18 27.1645H190.216V32H188.825V27.8583H186.145V29.6647H188.484L188.041 30.3543H187.182L186.075 32H184.711L185.835 30.3543H185.184Z" fill="#41A2EB"/>
<path fill-rule="evenodd" clip-rule="evenodd" d="M204.038 32H202.687L204.946 27.1645H206.447L208.706 32H207.355L205.694 28.4506L204.038 32Z" fill="#41A2EB"/>
<path fill-rule="evenodd" clip-rule="evenodd" d="M241.257 27.1645L240.81 27.8583H237.063V31.2977L240.81 31.3062L241.257 32H236.106L235.672 31.3274V27.8371L236.106 27.1645H241.257Z" fill="#41A2EB"/>
<path fill-rule="evenodd" clip-rule="evenodd" d="M65.8381 27.8583V31.2977H69.2128V27.8583H65.8381ZM70.1738 27.1645L70.6034 27.8371V31.3274L70.1738 32H64.8815L64.4519 31.3274V27.8371L64.8815 27.1645H70.1738Z" fill="#41A2EB"/>
<path fill-rule="evenodd" clip-rule="evenodd" d="M96.1928 27.8583V31.2977H99.5675V27.8583H96.1928ZM100.529 27.1645L100.958 27.8371V31.3274L100.529 32H95.2362L94.8066 31.3274V27.8371L95.2362 27.1645H100.529Z" fill="#41A2EB"/>
<path fill-rule="evenodd" clip-rule="evenodd" d="M161.243 32V27.1645H162.629V30.3797L165.906 27.1645H167.15V32H165.76V28.7383L162.487 32H161.243Z" fill="#41A2EB"/>
<path fill-rule="evenodd" clip-rule="evenodd" d="M177.377 32V27.1645H178.763V30.3797L182.04 27.1645H183.284V32H181.894V28.7383L178.621 32H177.377Z" fill="#41A2EB"/>
<path fill-rule="evenodd" clip-rule="evenodd" d="M198.643 28.4506L197.315 31.2893H199.972L198.643 28.4506ZM199.392 27.1645L201.318 31.2893H202.364L201.907 31.9958H194.773L195.229 31.2893H195.964L197.891 27.1645H199.392Z" fill="#41A2EB"/>
<path fill-rule="evenodd" clip-rule="evenodd" d="M210.043 30.3543L209.618 29.6859V27.8329L210.043 27.1645H215.074V32H213.688V27.8583H211.004V29.6647H213.343L212.9 30.3543H212.04L210.938 32H209.574L210.699 30.3543H210.043Z" fill="#41A2EB"/>
<path fill-rule="evenodd" clip-rule="evenodd" d="M226.62 32H222.887L223.329 31.3062H225.659V29.6478H222.523V31.9915H221.137V27.1729L227.063 27.1645L226.62 27.8583H222.523V28.954H226.62L226.629 28.9625L227.05 29.6224V31.3316L226.62 32Z" fill="#41A2EB"/>
<path fill-rule="evenodd" clip-rule="evenodd" d="M229.849 31.1708L229.397 32H227.975L230.597 27.1645H232.196L234.822 32H233.338L231.368 28.366L230.225 30.4812H232.16L231.717 31.1708H229.849Z" fill="#41A2EB"/>
<path fill-rule="evenodd" clip-rule="evenodd" d="M247.936 27.1645L247.493 27.8583H243.742V31.2977L247.493 31.3062L247.936 32H242.785L242.355 31.3274V27.8371L242.785 27.1645H247.936Z" fill="#41A2EB"/>
<path fill-rule="evenodd" clip-rule="evenodd" d="M254.251 27.8583H250.416V31.2977L254.251 31.3062L254.698 32H249.459L249.025 31.3274L249.029 27.8371L249.459 27.1645H254.698L254.251 27.8583Z" fill="#41A2EB"/>
<path fill-rule="evenodd" clip-rule="evenodd" d="M254.291 29.2375L253.848 29.927H250.766L251.208 29.2375H254.291Z" fill="#41A2EB"/>
<path fill-rule="evenodd" clip-rule="evenodd" d="M256.248 32V27.1645H257.635V30.3797L260.912 27.1645H262.156V32H260.77V28.7383L257.493 32H256.248Z" fill="#41A2EB"/>
<path fill-rule="evenodd" clip-rule="evenodd" d="M265.261 29.982V32H263.875V27.1645H265.261V29.2925H268.095L267.652 29.982H265.261Z" fill="#41A2EB"/>
<path d="M269.827 27.1645H268.441V31.9958H269.827V27.1645Z" fill="#41A2EB"/>
<path fill-rule="evenodd" clip-rule="evenodd" d="M272.883 27.8583V31.2977H276.258V27.8583H272.883ZM277.219 27.1645L277.648 27.8371V31.3274L277.219 32H271.926L271.497 31.3274V27.8371L271.926 27.1645H277.219Z" fill="#41A2EB"/>
<path fill-rule="evenodd" clip-rule="evenodd" d="M280.474 27.8625V29.2586H283.609V27.8625H280.474ZM284.814 29.6309L285 29.9186V31.3274L284.57 31.9958H280.837L281.28 31.302H283.609V29.944H280.474V31.9873H279.083V27.1687L284.566 27.1645L284.991 27.8287V29.3348L284.814 29.6309Z" fill="#41A2EB"/>
<path fill-rule="evenodd" clip-rule="evenodd" d="M157.819 19.6933V4.02749H162.562V14.5447L172.97 4.02749H177.235V19.6933H172.496V9.02803L162.084 19.6933H157.819Z" fill="#255394"/>
<path fill-rule="evenodd" clip-rule="evenodd" d="M67.5653 19.6933L55.2489 19.6891L56.7148 17.4468H64.0046V12.074H54.0575V19.6679H49.084V4.02749H69.0312L67.5653 6.2697H54.0575V9.8276H67.5741L68.9825 11.9852V17.523L67.5653 19.6933Z" fill="#255394"/>
<path fill-rule="evenodd" clip-rule="evenodd" d="M76.6221 17.0111L75.134 19.6933H70.0498L78.708 4.02749H84.3724L93.0307 19.6933H87.7516L81.4406 8.28344L77.871 14.7689H83.8631L82.3928 17.0111H76.6221Z" fill="#255394"/>
<path fill-rule="evenodd" clip-rule="evenodd" d="M153.443 6.2697H140.79V17.4257L153.443 17.4468L154.909 19.6933H137.23L135.808 17.5145L135.813 6.20201L137.234 4.02749H154.909L153.443 6.2697Z" fill="#255394"/>
<path fill-rule="evenodd" clip-rule="evenodd" d="M153.572 10.7372L152.106 12.9794C148.607 12.9794 145.432 12.9794 141.938 12.9794L143.403 10.7372H153.572Z" fill="#255394"/>
<path fill-rule="evenodd" clip-rule="evenodd" d="M185.415 13.1613V19.6933H180.676V4.02749H185.415V10.9149H194.361L192.895 13.1613H185.415Z" fill="#255394"/>
<path fill-rule="evenodd" clip-rule="evenodd" d="M220.03 19.6933H209.609L211.075 17.4468H216.469V11.4183H208.466V19.6933H203.728V4.02749H208.466V9.1761H220.039L221.447 11.3295V17.523L220.03 19.6933Z" fill="#255394"/>
<path fill-rule="evenodd" clip-rule="evenodd" d="M256.656 4.02749L258.064 6.18085V12.7721L256.647 14.9381H246.368L247.834 12.6917H253.086V6.2697H245.234V19.6933H240.261V4.02749H256.656Z" fill="#255394"/>
<path fill-rule="evenodd" clip-rule="evenodd" d="M237.475 17.4468L236.009 19.6891L230.681 19.6933L232.147 17.4468H237.475Z" fill="#255394"/>
<path fill-rule="evenodd" clip-rule="evenodd" d="M283.552 16.77H276.47L277.936 14.5278H279.991V6.27392H275.336V19.6933H270.358V16.77H262.139L260.721 14.6039V6.18085L262.13 4.02749H283.556L284.965 6.18085V14.6039L283.552 16.77ZM265.704 6.2697V14.5235H270.363V6.2697H265.704Z" fill="#255394"/>
<path d="M227.807 4.02749H223.112V19.6933H227.807V4.02749Z" fill="#255394"/>
<path d="M200.247 4.02749H195.508V19.6933H200.247V4.02749Z" fill="#255394"/>
<path fill-rule="evenodd" clip-rule="evenodd" d="M133.89 4.02749L132.425 6.2697H120.059V17.4257L132.425 17.4468L133.89 19.6933H116.503L115.081 17.5145V6.20201L116.508 4.02749H133.89Z" fill="#255394"/>
<path fill-rule="evenodd" clip-rule="evenodd" d="M172.921 0L171.455 2.24219H163.169L164.635 0H172.921Z" fill="#255394"/>
<path fill-rule="evenodd" clip-rule="evenodd" d="M99.2929 6.2697V17.4257L111.658 17.4468L113.124 19.6933H95.7367L94.315 17.5145V6.20201L95.7367 4.02749H113.124L111.658 6.2697H99.2929Z" fill="#255394"/>
</svg>
