<svg width="100" height="100" viewBox="0 0 100 100" fill="none" xmlns="http://www.w3.org/2000/svg">
<rect width="100" height="100" rx="8" fill="#F7F7F7"/>
<g clip-path="url(#clip0_176_13965)">
<path d="M50 20C44.0666 20 38.2664 21.7595 33.3329 25.0559C28.3994 28.3524 24.5543 33.0377 22.2836 38.5195C20.013 44.0013 19.4189 50.0333 20.5765 55.8527C21.734 61.6721 24.5912 67.0176 28.7868 71.2132C32.9824 75.4088 38.3279 78.266 44.1473 79.4236C49.9667 80.5811 55.9987 79.987 61.4805 77.7164C66.9623 75.4458 71.6477 71.6006 74.9441 66.6671C78.2405 61.7336 80 55.9334 80 50C80 42.0435 76.8393 34.4129 71.2132 28.7868C65.5871 23.1607 57.9565 20 50 20ZM46.275 35C46.275 34.0054 46.6701 33.0516 47.3734 32.3483C48.0766 31.6451 49.0305 31.25 50.025 31.25C51.0196 31.25 51.9734 31.6451 52.6767 32.3483C53.3799 33.0516 53.775 34.0054 53.775 35V52.225C53.775 52.7175 53.678 53.2051 53.4896 53.6601C53.3011 54.115 53.0249 54.5284 52.6767 54.8767C52.3284 55.2249 51.915 55.5011 51.4601 55.6895C51.0051 55.878 50.5175 55.975 50.025 55.975C49.5326 55.975 49.0449 55.878 48.59 55.6895C48.135 55.5011 47.7216 55.2249 47.3734 54.8767C47.0251 54.5284 46.7489 54.115 46.5605 53.6601C46.372 53.2051 46.275 52.7175 46.275 52.225V35ZM50 68.75C49.1496 68.75 48.3182 68.4978 47.6111 68.0253C46.9039 67.5528 46.3528 66.8813 46.0273 66.0955C45.7019 65.3098 45.6167 64.4452 45.7826 63.6111C45.9486 62.777 46.3581 62.0108 46.9595 61.4094C47.5608 60.8081 48.327 60.3985 49.1611 60.2326C49.9952 60.0667 50.8598 60.1519 51.6455 60.4773C52.4313 60.8028 53.1028 61.3539 53.5753 62.061C54.0478 62.7682 54.3 63.5995 54.3 64.45C54.3 65.5904 53.847 66.6842 53.0406 67.4906C52.2342 68.297 51.1404 68.75 50 68.75Z" fill="#538FEA"/>
</g>
<defs>
<clipPath id="clip0_176_13965">
<rect width="90" height="90" fill="white" transform="translate(5 5)"/>
</clipPath>
</defs>
</svg>
