<svg width="100" height="100" viewBox="0 0 100 100" fill="none" xmlns="http://www.w3.org/2000/svg">
<rect width="100" height="100" rx="8" fill="#F7F7F7"/>
<path d="M62.1695 44.9024L59.651 27.1979C59.3579 25.0388 57.5361 23.4628 55.355 23.4628H52.7231C52.5213 16.5569 46.873 11 39.945 11C32.9918 11 27.3467 16.5569 27.145 23.4628H24.5131C22.3319 23.4628 20.507 25.0388 20.217 27.1979L15.0414 63.6912C14.6821 66.301 16.7057 68.6398 19.3376 68.6398H40.1026C40.8181 56.4228 50.2015 46.5005 62.1695 44.9024ZM39.9419 16.1724C44.0142 16.1724 47.3427 19.4126 47.5223 23.4628H32.3362C32.5191 19.4126 35.8475 16.1724 39.9419 16.1724ZM39.9419 45.3531C33.4394 45.3531 28.1536 40.0894 28.1536 33.5869C28.1536 32.1465 29.3009 30.9991 30.7413 30.9991C32.1597 30.9991 33.3291 32.1465 33.3291 33.5869C33.3291 37.2306 36.2982 40.1776 39.945 40.1776C43.5666 40.1776 46.5358 37.2306 46.5358 33.5869C46.5358 32.1465 47.7052 30.9991 49.1235 30.9991C50.564 30.9991 51.7113 32.1465 51.7113 33.5869C51.7081 40.0894 46.4223 45.3531 39.9419 45.3531Z" fill="#538FEA"/>
<path d="M65.5696 49.8448C54.3392 49.8448 45.2363 58.9477 45.2363 70.1781C45.2363 81.4085 54.3392 90.5114 65.5696 90.5114C76.8 90.5114 85.9028 81.4085 85.9028 70.1781C85.9028 58.9477 76.8 49.8448 65.5696 49.8448ZM74.7544 67.127L65.6011 76.7909C65.1126 77.3047 64.4318 77.5978 63.7226 77.5978C63.0134 77.5978 62.3325 77.3047 61.844 76.7909L56.3911 71.0323C55.4077 69.9953 55.4518 68.3563 56.4888 67.3729C57.5289 66.3926 59.1648 66.4367 60.1482 67.4706L63.7226 71.2466L70.9972 63.5653C71.9806 62.5283 73.6165 62.4842 74.6535 63.4676C75.6905 64.451 75.7347 66.0869 74.7544 67.127Z" fill="#6D9FEA"/>
</svg>
