<svg width="46" height="45" viewBox="0 0 46 45" fill="none" xmlns="http://www.w3.org/2000/svg">
<g clip-path="url(#clip0_352_2168)">
<rect x="0.5" width="45" height="45" rx="22.5" fill="white"/>
<path d="M23.4997 9.33331C25.975 9.33331 28.349 10.3166 30.0993 12.067C31.8497 13.8173 32.833 16.1913 32.833 18.6666C32.833 21.142 31.8497 23.516 30.0993 25.2663C28.349 27.0166 25.975 28 23.4997 28C21.0243 28 18.6503 27.0166 16.9 25.2663C15.1497 23.516 14.1663 21.142 14.1663 18.6666C14.1663 16.1913 15.1497 13.8173 16.9 12.067C18.6503 10.3166 21.0243 9.33331 23.4997 9.33331ZM23.4997 32.6666C33.813 32.6666 42.1663 36.8433 42.1663 42V46.6666H4.83301V42C4.83301 36.8433 13.1863 32.6666 23.4997 32.6666Z" fill="#538FEA"/>
</g>
<defs>
<clipPath id="clip0_352_2168">
<rect x="0.5" width="45" height="45" rx="22.5" fill="white"/>
</clipPath>
</defs>
</svg>
