<svg width="50" height="50" viewBox="0 0 50 50" fill="none" xmlns="http://www.w3.org/2000/svg">
<rect width="50" height="50" rx="4" fill="#F7F7F7"/>
<path d="M30.0644 8.95898C25.2566 8.95898 21.0206 11.4143 18.5356 15.1391C19.248 15.5096 19.893 15.9922 20.4568 16.556C22.497 13.4099 26.0434 11.3331 30.0644 11.3331C36.3931 11.3331 41.5417 16.4817 41.5417 22.8105C41.5417 29.1461 36.3931 34.2958 30.0644 34.2958C28.7138 34.2958 27.4157 34.0579 26.2138 33.6279C26.2218 33.7537 26.2218 33.8875 26.2218 34.0133V36.121C27.4386 36.4836 28.7298 36.67 30.0644 36.67C37.706 36.67 43.9158 30.4533 43.9158 22.8116C43.9158 15.1768 37.706 8.95898 30.0644 8.95898Z" fill="#41A2EB"/>
<path d="M19.8622 27.9899C18.5265 29.0798 16.8282 29.7408 14.9653 29.7408C13.1034 29.7408 11.404 29.0809 10.0694 27.9819C7.84395 28.9986 6.08505 30.8753 6.08505 34.0134V37.3893C6.08505 38.0057 6.58253 38.5089 7.20466 38.5089H22.7258C23.3422 38.5089 23.8466 38.0046 23.8466 37.3893V34.0134C23.8466 30.8833 22.0888 28.9986 19.8622 27.9899Z" fill="#538FEA"/>
<path d="M14.9656 27.3656C17.9275 27.3656 20.3291 24.964 20.3291 22.0032C20.3291 19.0401 17.9275 16.6396 14.9656 16.6396C12.0036 16.6396 9.60199 19.0412 9.60199 22.0032C9.60199 24.964 12.0036 27.3656 14.9656 27.3656Z" fill="#538FEA"/>
<path d="M24.5037 18.8295L23.6585 17.9786C23.6082 17.9272 23.5362 17.9066 23.4653 17.9169C23.3978 17.9306 23.336 17.9786 23.3086 18.0426C23.1759 18.3343 23.1085 18.6442 23.1085 18.9667C23.1085 19.5568 23.3463 20.1263 23.7534 20.5277C24.3241 21.1018 25.1693 21.3157 25.9458 21.0847L27.7241 22.863L29.5127 21.1796L27.6841 19.351C27.7458 19.1543 27.7756 18.9404 27.7756 18.7231C27.7756 18.133 27.548 17.5761 27.1306 17.1518C26.4787 16.5068 25.478 16.3307 24.6466 16.7103C24.5826 16.7412 24.5345 16.8018 24.5208 16.8693C24.5105 16.9402 24.5311 17.0123 24.5814 17.0626L25.43 17.9111C25.5558 18.0324 25.6233 18.1959 25.6233 18.3686C25.6233 18.5459 25.5558 18.7082 25.43 18.8306C25.1796 19.0833 24.7621 19.0833 24.5037 18.8295Z" fill="#41A2EB"/>
<path d="M35.1924 27.6664L36.0342 28.5115C36.0822 28.5618 36.1531 28.5858 36.224 28.5721C36.2926 28.5618 36.3532 28.5172 36.383 28.4532C36.519 28.1787 36.5899 27.8596 36.5899 27.5337C36.5899 26.9436 36.3589 26.3866 35.9415 25.9624C35.372 25.3928 34.52 25.1859 33.7458 25.4134L32.378 24.0457L30.6946 25.8343L32.0109 27.1517C31.9491 27.3553 31.9194 27.5691 31.9194 27.7796C31.9194 28.3731 32.1504 28.9335 32.5678 29.3475C32.9853 29.7683 33.5559 29.9925 34.1357 29.9925C34.4445 29.9925 34.7567 29.9284 35.0518 29.7958C35.1158 29.7695 35.1639 29.7077 35.1741 29.6402C35.1879 29.5682 35.1673 29.4973 35.1158 29.447L34.2673 28.5915C34.1415 28.4692 34.074 28.3056 34.074 28.1295C34.074 27.9568 34.1426 27.7899 34.2673 27.6675C34.5074 27.4319 34.9454 27.4285 35.1924 27.6664Z" fill="#41A2EB"/>
<path d="M30.8004 21.2644L24.2692 27.4262C24.0302 27.6515 24.0245 28.0301 24.2567 28.2622L25.295 29.3006C25.5272 29.5328 25.9046 29.527 26.131 29.288L32.2917 22.7568L30.8004 21.2644Z" fill="#41A2EB"/>
<path d="M33.067 16.491L32.335 15.7579C32.1738 15.5967 31.9142 15.5967 31.7529 15.7579L30.2399 17.2709C30.0798 17.4322 30.0798 17.6918 30.2399 17.853L30.973 18.5849C31.0531 18.665 31.1766 18.697 31.2783 18.6467C31.4796 18.5472 31.7312 18.5804 31.8993 18.7485L32.2298 19.0801C32.43 19.2791 32.438 19.5947 32.2584 19.8063L31.4727 20.5931L32.964 22.0844L33.3609 21.6876C34.2026 20.8447 35.4846 21.6144 36.2611 24.0869C36.3766 24.454 36.913 24.3991 36.9541 24.0171C37.3086 20.7132 36.1639 19.5879 35.6309 19.055C35.1335 18.5575 34.8419 18.2659 34.4873 17.9113C34.4073 17.8313 34.2838 17.7993 34.182 17.8496C33.9807 17.9491 33.7291 17.9159 33.561 17.7478L33.2305 17.4173C33.0624 17.2492 33.0281 16.9976 33.1287 16.7952C33.179 16.6945 33.147 16.571 33.067 16.491Z" fill="#41A2EB"/>
</svg>
