<svg width="70" height="70" viewBox="0 0 70 70" fill="none" xmlns="http://www.w3.org/2000/svg">
<rect width="70" height="70" rx="8" fill="white"/>
<path d="M47.2672 48.4216L39.7876 44.5544C38.7329 44.0077 37.4374 44.2925 36.7043 45.2294L33.9586 48.7503C31.2867 47.3054 29.2564 45.9343 26.8991 43.577C24.3836 41.0615 23.0512 38.9961 21.6713 36.3962L25.1518 33.6786C26.0905 32.9474 26.3735 31.6536 25.8268 30.5971L21.9789 23.1562C21.3022 21.8484 19.6392 21.4195 18.414 22.2351L13.6503 25.4115C12.5446 26.1481 11.9188 27.419 12.0085 28.7444C12.0999 30.1014 12.2704 31.8101 12.5815 33.0019C13.9685 38.3387 17.3031 43.8424 21.9684 48.5077C26.6319 53.1713 32.1375 56.5077 37.4742 57.8946C38.6713 58.2057 40.3835 58.3745 41.7476 58.4641C43.0905 58.552 44.3755 57.9051 45.1033 56.7731L48.2059 51.9549C48.9969 50.7279 48.561 49.0896 47.2672 48.4216Z" fill="#538FEA"/>
<path d="M44.7262 12C37.1727 12 31.0502 18.1225 31.0502 25.6777C31.0502 28.2037 31.7463 30.561 32.9399 32.5913L30.4244 38.0758C29.8707 39.2834 31.117 40.5315 32.3264 39.976L37.8091 37.4623C39.8394 38.6558 42.1984 39.3537 44.7244 39.3537C52.2778 39.3537 58.4004 33.2294 58.4004 25.6777C58.4039 18.1243 52.2796 12 44.7262 12ZM51.0649 24.4068L44.4168 31.055C44.0476 31.4241 43.5449 31.6333 43.0228 31.6333C42.499 31.6333 41.998 31.4259 41.6289 31.055L38.0534 27.4795C37.2835 26.7096 37.2835 25.4598 38.0534 24.6898C38.8234 23.9199 40.0732 23.9199 40.8431 24.6898L43.0246 26.8695L48.277 21.6154C49.047 20.8454 50.2968 20.8454 51.0667 21.6154C51.8366 22.3871 51.8366 23.6369 51.0649 24.4068Z" fill="#41A2EB"/>
</svg>
