<svg width="70" height="70" viewBox="0 0 70 70" fill="none" xmlns="http://www.w3.org/2000/svg">
<path d="M21.9109 31.7426C21.0312 33.3417 20.3999 35.0868 20.0717 36.9269L18.6153 36.9402C16.5686 36.9534 14.9207 38.5658 14.9207 40.5386V46.5633C14.9207 47.5365 15.3059 48.4433 16.0193 49.1223C16.719 49.8013 17.6398 50.1618 18.6289 50.1618C18.6426 50.1618 18.6426 50.1618 18.6563 50.1618L21.9793 50.1485C22.9275 50.1485 23.7092 49.3877 23.7092 48.4698V39.8751C23.7229 37.6236 24.2859 35.4915 25.3024 33.6116C24.8351 33.4921 24.3816 33.2908 23.9713 33.0387L21.9109 31.7426Z" fill="#538FEA"/>
<path d="M56.999 36.9401L55.5152 36.9269C54.0452 28.717 46.6697 22.4401 37.7855 22.4401C35.9872 22.4401 34.2437 22.7056 32.5936 23.1855C32.1263 24.3046 31.454 25.3707 30.5879 26.3438L31.0551 27.7571C31.0688 27.7969 31.0825 27.85 31.0961 27.8898C33.0882 26.837 35.3673 26.2377 37.7832 26.2377C45.5575 26.2377 51.8731 32.3685 51.8731 39.9105V51.6392C51.8731 54.7179 49.2908 57.2238 46.1182 57.2238H42.9046C42.6562 56.2639 41.7786 55.5318 40.7074 55.5318H34.8705C33.5941 55.5318 32.5503 56.5315 32.5503 57.7833V59.3426C32.5503 60.5811 33.5941 61.5941 34.8705 61.5941H40.7074C41.7786 61.5941 42.6584 60.862 42.9046 59.8889H46.1182C50.8019 59.8889 54.6195 56.1842 54.6195 51.6392V50.1463L56.9534 50.1595C56.9671 50.1595 56.9671 50.1595 56.9808 50.1595C57.9699 50.1595 58.8884 49.7991 59.5904 49.1201C60.3038 48.4411 60.689 47.5342 60.689 46.5611V40.5364C60.6935 38.5658 59.032 36.9534 56.999 36.9401Z" fill="#538FEA"/>
<path d="M26.5241 25.3552C28.5731 23.7605 29.8381 21.6196 29.8381 19.2597C29.8381 14.3364 24.3771 10.3465 17.6422 10.3465C10.9072 10.3465 5.44629 14.3364 5.44629 19.2597C5.44629 24.1808 10.9072 28.1707 17.6422 28.1707C19.1305 28.1707 20.5481 27.9672 21.8678 27.6111L25.8996 30.1126C26.825 30.6854 27.9828 29.825 27.6501 28.8099L26.5241 25.3552ZM11.6685 21.1242C10.6086 21.1242 9.74938 20.2904 9.74938 19.2619C9.74938 18.2335 10.6086 17.3997 11.6685 17.3997C12.7283 17.3997 13.5875 18.2335 13.5875 19.2619C13.5898 20.2904 12.7283 21.1242 11.6685 21.1242ZM17.6445 21.1242C16.5846 21.1242 15.7254 20.2904 15.7254 19.2619C15.7254 18.2335 16.5846 17.3997 17.6445 17.3997C18.7043 17.3997 19.5635 18.2335 19.5635 19.2619C19.5635 20.2904 18.7043 21.1242 17.6445 21.1242ZM23.6182 21.1242C22.5584 21.1242 21.6991 20.2904 21.6991 19.2619C21.6991 18.2335 22.5584 17.3997 23.6182 17.3997C24.678 17.3997 25.5372 18.2335 25.5372 19.2619C25.5372 20.2904 24.678 21.1242 23.6182 21.1242Z" fill="#14A0DE"/>
<path d="M34.7588 36.9954C34.7588 35.5932 33.5873 34.4586 32.1446 34.4586C30.6996 34.4586 29.5304 35.5932 29.5304 36.9954C29.5304 38.3954 30.7019 39.5322 32.1446 39.5322C33.5873 39.5322 34.7588 38.3954 34.7588 36.9954Z" fill="#538FEA"/>
<path d="M46.0863 36.9954C46.0863 35.5932 44.9148 34.4586 43.4721 34.4586C42.0294 34.4586 40.8579 35.5932 40.8579 36.9954C40.8579 38.3954 42.0294 39.5322 43.4721 39.5322C44.9148 39.5322 46.0863 38.3954 46.0863 36.9954Z" fill="#538FEA"/>
<path d="M37.8059 50.3543C41.4367 50.3543 44.4452 47.7621 44.9671 44.3782C45.0514 43.8297 44.6229 43.3277 44.0509 43.3277H31.5633C30.9912 43.3277 30.5627 43.8297 30.647 44.3782C31.1712 47.7621 34.1775 50.3543 37.8059 50.3543Z" fill="#538FEA"/>
</svg>
