<svg width="70" height="70" viewBox="0 0 70 70" fill="none" xmlns="http://www.w3.org/2000/svg">
<rect width="70" height="70" rx="8" fill="white"/>
<path d="M18.696 18.6842C27.6099 9.77194 42.1138 9.77194 51.0261 18.6842L53.6084 21.2664V16.8771C53.6084 15.7064 54.5611 14.7537 55.7318 14.7537C56.9025 14.7537 57.8553 15.7064 57.8553 16.8771V26.394C57.8553 27.5648 56.9025 28.5175 55.7318 28.5175H46.2167C45.0459 28.5175 44.0932 27.5648 44.0932 26.394C44.0932 25.2216 45.0459 24.2706 46.2167 24.2706H50.606L48.022 21.6866C44.3938 18.0584 39.6283 16.2443 34.861 16.2443C30.0938 16.2443 25.3265 18.0584 21.6966 21.6866C17.9278 25.4571 15.9537 30.6726 16.2807 35.9954C16.3528 37.1626 15.4598 38.1716 14.2908 38.2436L14.159 38.2472C13.0392 38.2472 12.1093 37.3717 12.0425 36.2538C11.6435 29.7164 14.0676 23.3126 18.696 18.6842Z" fill="#538FEA"/>
<path d="M34.6182 22.3047C35.7889 22.3047 36.7416 23.2574 36.7416 24.4282V34.8469C36.7416 35.7961 36.1035 36.6363 35.1912 36.8912L27.5464 39.0305C26.4442 39.3469 25.2366 38.6579 24.9307 37.5592C24.6143 36.4324 25.2753 35.2582 26.4038 34.9418L32.4964 33.2349V24.4282C32.4947 23.2574 33.4474 22.3047 34.6182 22.3047Z" fill="#538FEA"/>
<path d="M25.4569 51.2102C26.5432 51.8359 27.7034 52.3545 28.9093 52.7553C29.3856 52.9117 29.7706 53.2457 29.9956 53.694C30.2206 54.1422 30.2575 54.6485 30.0993 55.1249C29.7829 56.0829 28.7176 56.6419 27.7297 56.3149C26.2936 55.8385 24.8979 55.2127 23.5865 54.4569C22.69 53.9418 22.3824 52.7922 22.8992 51.8975C23.4125 51.0045 24.5604 50.6951 25.4569 51.2102Z" fill="#41A2EB"/>
<path d="M53.5426 37.4688C53.6111 36.9748 53.8713 36.5354 54.2721 36.2313C54.6026 35.9816 54.9945 35.8516 55.3971 35.8516C55.4832 35.8516 55.5693 35.8568 55.6555 35.8691C56.1529 35.9377 56.5924 36.1961 56.8948 36.5951C57.1971 36.9942 57.3254 37.4881 57.2569 37.9838C57.0477 39.4868 56.6856 40.9704 56.1828 42.3942C55.8471 43.3435 54.7361 43.8708 53.7922 43.5386C53.3193 43.3716 52.9396 43.0306 52.7234 42.5788C52.5072 42.1253 52.4808 41.6173 52.6461 41.1444C53.068 39.9526 53.3685 38.7151 53.5426 37.4688Z" fill="#41A2EB"/>
<path d="M48.1956 48.1903C48.4734 47.9125 48.7405 47.6278 48.9972 47.336C49.3681 46.9176 49.8849 46.7031 50.4052 46.7031C50.8464 46.7031 51.2894 46.8578 51.6462 47.1725C52.4215 47.8563 52.4953 49.0446 51.8115 49.8198C51.5039 50.1661 51.1822 50.5088 50.8499 50.8428C50.1099 51.5829 49.3154 52.2755 48.4839 52.9048C47.6771 53.513 46.4624 53.3425 45.8577 52.5409C45.5554 52.1419 45.427 51.6479 45.4938 51.154C45.5624 50.6583 45.819 50.2188 46.2198 49.9147C46.9107 49.3873 47.5769 48.8073 48.1956 48.1903Z" fill="#41A2EB"/>
<path d="M15.481 42.4774L15.4828 42.4756C15.7465 42.342 16.0312 42.2734 16.3195 42.2734C16.5146 42.2734 16.7115 42.3051 16.9031 42.3684C17.383 42.5248 17.7715 42.8588 17.9983 43.3106C18.566 44.4409 19.2499 45.5166 20.0303 46.5046C20.6702 47.3167 20.5296 48.4979 19.7174 49.1378C18.9264 49.7601 17.7047 49.6142 17.0824 48.8249C16.142 47.6331 15.3228 46.3428 14.6461 44.9911C14.4211 44.5446 14.3842 44.0365 14.5406 43.5602C14.7006 43.0873 15.0345 42.7024 15.481 42.4774Z" fill="#41A2EB"/>
<path d="M36.0331 53.6785C37.2917 53.6012 38.5485 53.3955 39.7702 53.0668C39.9337 53.0229 40.099 53 40.2642 53C40.5876 53 40.9058 53.0844 41.1923 53.2479C41.6265 53.4992 41.9377 53.9035 42.0677 54.3887C42.3367 55.3889 41.7425 56.4207 40.7441 56.6879C39.2868 57.0799 37.7786 57.326 36.2634 57.421L36.1456 57.4245C35.1577 57.4245 34.3368 56.651 34.277 55.6631C34.2137 54.633 35.0012 53.7418 36.0331 53.6785Z" fill="#41A2EB"/>
</svg>
