<svg width="70" height="70" viewBox="0 0 70 70" fill="none" xmlns="http://www.w3.org/2000/svg">
<path d="M43.7481 18.1265L41.8872 17.856C41.6536 17.2924 41.5914 17.1425 41.3578 16.5776L42.4825 15.0719C42.7821 14.6694 42.7415 14.1083 42.3873 13.7528L40.8602 12.2255C40.5061 11.8713 39.945 11.8307 39.5426 12.1303L38.0358 13.2552C37.4722 13.0203 37.3211 12.9593 36.7575 12.7257L36.4871 10.8646C36.4148 10.3682 35.9895 10 35.4881 10H33.3289C32.8274 10 32.4022 10.3669 32.3298 10.8646L32.0594 12.7257C31.4958 12.9593 31.3448 13.0203 30.7799 13.2552L29.2731 12.1303C28.8707 11.8307 28.3096 11.8701 27.9555 12.2255L26.4284 13.7528C26.0742 14.107 26.0336 14.6682 26.3332 15.0706L27.4579 16.5776C27.2243 17.1425 27.1621 17.2924 26.9285 17.856L25.0676 18.1265C24.5712 18.1976 24.2031 18.6241 24.2031 19.1256V21.2851C24.2031 21.7866 24.5712 22.2119 25.0676 22.2843L26.9285 22.5547C27.1621 23.1184 27.2243 23.2694 27.4579 23.8344L26.3332 25.3401C26.0336 25.7425 26.0742 26.3037 26.4284 26.6592L27.9555 28.1852C28.3109 28.5394 28.872 28.5813 29.2731 28.2804L30.7799 27.1556C31.3435 27.3892 31.4946 27.4514 32.0594 27.685L32.3298 29.5461C32.4022 30.0413 32.8274 30.4107 33.3289 30.4107H35.4881C35.9895 30.4107 36.4148 30.0425 36.4871 29.5461L36.7575 27.685C37.3211 27.4514 37.4722 27.3892 38.0358 27.1556L39.5426 28.2804C39.9437 28.58 40.5048 28.5394 40.8602 28.1852L42.3873 26.6592C42.7415 26.3037 42.7821 25.7425 42.4825 25.3401L41.3553 23.8293C41.5876 23.2669 41.6498 23.1171 41.8834 22.5547L43.7494 22.283C44.2457 22.2106 44.6138 21.7853 44.6138 21.2839V19.1243C44.6126 18.6241 44.2445 18.1976 43.7481 18.1265ZM38.1843 19.1776L34.1121 23.2491C33.8645 23.4967 33.5396 23.6198 33.2171 23.6198C32.8934 23.6198 32.5685 23.4967 32.3222 23.2491L30.3001 21.2267C29.805 20.7316 29.805 19.9305 30.3001 19.4354C30.7951 18.9402 31.5961 18.9402 32.0912 19.4354L33.2184 20.5627L36.3945 17.3863C36.8908 16.8912 37.6931 16.8937 38.1856 17.3863C38.6781 17.8814 38.6781 18.6825 38.1843 19.1776Z" fill="#41A2EB"/>
<path d="M48.2803 48.0365L47.3178 46.8525C44.0903 43.2272 39.4541 40.5768 37.9098 39.7469L37.0799 41.0635C36.4668 42.0494 35.2407 42.5236 34.116 42.2179C34.0972 42.2117 34.0676 42.1992 34.0505 42.1945C32.7105 41.7499 31.9227 40.3725 32.2347 39.0091C32.5171 37.7705 32.9866 36.6099 33.623 35.5398L32.216 35.3417C31.2488 35.2028 30.238 35.39 29.3847 35.858L28.5969 36.2854C27.5923 36.8392 26.4083 36.8985 25.3506 36.4664L23.655 35.7628L17.1562 45.9228L19.5555 47.5342L20.8299 46.2597C21.3166 45.773 21.9656 45.5016 22.6582 45.5016C23.3492 45.5016 23.9982 45.7715 24.4864 46.2597C24.9201 46.6871 25.165 47.2456 25.2196 47.8462C26.0729 47.6293 27.0167 47.8462 27.6843 48.5138C28.171 49.0005 28.4362 49.6495 28.4362 50.3421C28.4362 50.5589 28.4066 50.7695 28.352 50.9739C28.9526 51.0347 29.5064 51.2812 29.9322 51.707C29.9385 51.707 29.9384 51.707 29.9384 51.707C30.5998 52.3747 30.8167 53.3185 30.6061 54.1718C31.2004 54.2263 31.7605 54.4728 32.1863 54.8987C32.1863 54.8987 32.1863 54.8987 32.1863 54.9049C32.673 55.3916 32.9429 56.0406 32.9429 56.7332C32.9429 57.3338 32.7385 57.9 32.372 58.3555L33.701 59.9841C34.4046 60.6642 35.6011 60.658 36.2921 59.9607C36.6415 59.6128 36.8334 59.1495 36.8334 58.6566C36.8334 58.187 36.6587 57.7487 36.3467 57.4118L35.7992 56.8642C35.5402 56.6053 35.5402 56.1841 35.7992 55.9267C36.0581 55.6677 36.473 55.6677 36.7304 55.9267L37.2889 56.4851L37.7335 56.936C38.4542 57.652 39.6273 57.652 40.348 56.936C40.3605 56.9172 40.3776 56.9063 40.3963 56.8876C41.064 56.1716 41.0577 55.0422 40.3604 54.3387L39.2357 53.2139C38.9768 52.955 38.9768 52.5401 39.2357 52.2827C39.4947 52.0237 39.9143 52.0237 40.1732 52.2764L41.7956 53.9003C42.4991 54.6039 43.7081 54.6039 44.4054 53.9003C44.7548 53.5509 44.9467 53.0892 44.9467 52.5962C44.9467 52.122 44.7719 51.6758 44.4475 51.3342L42.7518 49.6448C42.6255 49.5122 42.56 49.3437 42.56 49.1752C42.56 49.0068 42.627 48.8321 42.7518 48.7057C43.0108 48.4467 43.4304 48.4467 43.6894 48.7057L45.7641 50.7789C46.1541 51.1704 46.7016 51.3795 47.2492 51.3685C47.7546 51.3623 48.2054 51.1579 48.5299 50.8101C48.8372 50.4669 49.0103 50.0285 49.0103 49.5652C49.0103 49.3312 48.962 49.1019 48.8777 48.8867C48.689 48.5965 48.4909 48.3142 48.2803 48.0365Z" fill="#538FEA"/>
<path d="M40.6089 35.4145L38.2299 34.6111C37.0382 34.2133 35.7528 34.675 35.0836 35.675L34.9774 35.8403C34.2989 36.8839 33.8091 38.0476 33.5252 39.2925C33.3676 39.9835 33.7888 40.7058 34.4845 40.9367C35.0477 41.0895 35.6482 40.8602 35.9618 40.3548L37.1177 38.5187C37.2425 38.3206 37.4562 38.2099 37.6777 38.2099C37.776 38.2099 37.8743 38.2317 37.9679 38.277C38.3204 38.4501 46.3869 42.456 50.1089 48.3277L53.9745 46.125L47.3509 35.7498C45.114 36.2646 42.799 36.1539 40.6089 35.4145Z" fill="#538FEA"/>
<path d="M31.2467 55.8369C31.0096 55.5998 30.6929 55.4688 30.3529 55.4688C30.0128 55.4688 29.6961 55.5998 29.4575 55.8369L27.7056 57.5887C27.2127 58.0817 27.2127 58.8835 27.7056 59.378C28.1799 59.8522 29.0191 59.8522 29.4933 59.378L31.2452 57.6261C31.4823 57.389 31.6133 57.0708 31.6133 56.7323C31.6148 56.3922 31.4838 56.0756 31.2467 55.8369Z" fill="#538FEA"/>
<path d="M29.0053 52.6338C28.7682 52.3967 28.45 52.2656 28.1115 52.2656C27.7729 52.2656 27.4547 52.3967 27.2176 52.6338L24.9931 54.8567C24.756 55.0938 24.625 55.412 24.625 55.7506C24.625 56.0906 24.756 56.4073 24.9931 56.6444C25.4689 57.1186 26.3066 57.1186 26.7809 56.6444L29.0053 54.4215C29.4982 53.9285 29.4982 53.1267 29.0053 52.6338Z" fill="#538FEA"/>
<path d="M27.1102 50.3339C27.1102 49.9938 26.9791 49.6771 26.742 49.44C26.4956 49.1935 26.1711 49.0703 25.8466 49.0703C25.5237 49.0703 25.1992 49.1935 24.9528 49.44L22.2588 52.134C22.0216 52.3712 21.8906 52.6894 21.8906 53.0279C21.8906 53.368 22.0216 53.6846 22.2588 53.9218C22.733 54.396 23.5707 54.3975 24.048 53.9218L26.742 51.2277C26.9807 50.9906 27.1102 50.674 27.1102 50.3339Z" fill="#538FEA"/>
<path d="M23.5507 47.1963C23.3135 46.9592 22.9953 46.8281 22.6568 46.8281C22.3167 46.8281 22.0001 46.9592 21.7614 47.1963L19.54 49.4192C19.3029 49.6563 19.1719 49.9745 19.1719 50.313C19.1719 50.6531 19.3029 50.9698 19.54 51.2069C20.033 51.6998 20.8348 51.6998 21.3293 51.2069L23.5522 48.984C24.0436 48.491 24.0436 47.6892 23.5507 47.1963Z" fill="#538FEA"/>
<path d="M22.6046 32.8421L19.544 30.889C19.0214 30.5521 18.3179 30.7081 17.9872 31.2322L10.1781 43.4528C9.84113 43.9754 9.99712 44.6789 10.5213 45.0159L13.5803 46.9689C13.8393 47.1312 14.1388 47.1858 14.4336 47.1187C14.7284 47.0532 14.9812 46.8785 15.1434 46.6257L22.9525 34.4051C23.2848 33.8763 23.1334 33.179 22.6046 32.8421ZM14.7331 44.0284C14.3759 44.5884 13.6318 44.7522 13.0733 44.395C12.5133 44.0378 12.3495 43.2937 12.7067 42.7352C13.064 42.1768 13.8081 42.0114 14.3665 42.3686C14.9266 42.7259 15.0903 43.47 14.7331 44.0284Z" fill="#538FEA"/>
<path d="M60.8264 43.4518L53.0173 31.2312C52.8551 30.9785 52.6024 30.7991 52.3075 30.7383C52.0127 30.6728 51.7132 30.7258 51.4543 30.888L48.3952 32.8411C47.8726 33.178 47.7166 33.8753 48.052 34.4042L55.8611 46.6248C56.198 47.1473 56.8953 47.3033 57.4179 46.9679L60.4785 45.0149C61.0073 44.6779 61.1571 43.9744 60.8264 43.4518ZM57.9311 44.394C57.3711 44.7513 56.6286 44.5875 56.2713 44.0275C55.9141 43.4674 56.0779 42.7249 56.6379 42.3677C57.198 42.0104 57.9405 42.1742 58.2977 42.7343C58.6549 43.2943 58.4896 44.0368 57.9311 44.394Z" fill="#538FEA"/>
</svg>
