<svg width="51" height="50" viewBox="0 0 51 50" fill="none" xmlns="http://www.w3.org/2000/svg">
<rect x="0.5" width="50" height="50" rx="4" fill="#F7F7F7"/>
<path d="M39.0373 38.3684L36.9621 23.2478C36.7454 21.6646 35.393 20.4855 33.7957 20.4855H17.4769C15.8797 20.4855 14.5273 21.6646 14.3106 23.2478L12.2353 38.3684C11.9715 40.2881 13.4642 42.0001 15.4017 42.0001H35.871C37.8085 42.0001 39.3012 40.2881 39.0373 38.3684ZM31.1635 32.2651H32.5198C32.349 33.4238 31.8952 34.4882 31.2272 35.3869L30.2686 34.4283C29.8697 34.0293 29.2208 34.0293 28.8218 34.4283C28.4228 34.8273 28.4228 35.4748 28.8218 35.8738L29.7817 36.8337C28.883 37.5016 27.8186 37.9554 26.6599 38.1262V36.7699C26.6599 36.2052 26.2023 35.7476 25.6376 35.7476C25.0729 35.7476 24.6153 36.2052 24.6153 36.7699V38.1262C23.4566 37.9554 22.3935 37.5016 21.4948 36.8337L22.4547 35.8738C22.8537 35.4748 22.8537 34.8273 22.4547 34.4283C22.0557 34.0293 21.4069 34.0293 21.0079 34.4283L20.048 35.3882C19.3801 34.4882 18.9263 33.4238 18.7555 32.2651H20.1118C20.6765 32.2651 21.1341 31.8075 21.1341 31.2428C21.1341 30.6781 20.6765 30.2205 20.1118 30.2205H18.7555C18.9263 29.0618 19.3801 27.9974 20.048 27.0987L21.0079 28.0586C21.208 28.2574 21.4693 28.3581 21.7306 28.3581C21.9919 28.3581 22.2545 28.2587 22.4534 28.0586C22.8524 27.6596 22.8524 27.012 22.4534 26.6131L21.4935 25.6532C22.3922 24.9853 23.4566 24.5315 24.614 24.3606V25.7169C24.614 26.2816 25.0716 26.7393 25.6363 26.7393C26.201 26.7393 26.6587 26.2816 26.6587 25.7169V24.3606C29.6848 24.8068 32.0736 27.1943 32.5198 30.2218H31.1635C30.5988 30.2218 30.1412 30.6794 30.1412 31.2441C30.1399 31.8075 30.5988 32.2651 31.1635 32.2651Z" fill="#538FEA"/>
<path d="M24.9131 31.9658C25.1132 32.1659 25.3745 32.2653 25.6359 32.2653C25.8972 32.2653 26.1598 32.1659 26.3586 31.9658L29.1107 29.2137C29.5097 28.8147 29.5097 28.1672 29.1107 27.7682C28.7117 27.3692 28.0629 27.3692 27.6639 27.7682L24.9118 30.5203C24.5141 30.9192 24.5141 31.5668 24.9131 31.9658Z" fill="#538FEA"/>
<path d="M40.3828 9.44012C39.8398 8.87415 38.9411 8.85375 38.3752 9.3955L36.5906 11.1036C35.5173 12.131 34.1074 12.697 32.6224 12.697H18.6541C17.1691 12.697 15.758 12.131 14.6847 11.1036L12.9014 9.3955C12.3329 8.8512 11.4355 8.87159 10.8937 9.43884C10.352 10.0048 10.3711 10.9035 10.9383 11.4465L12.7217 13.1559C14.3278 14.6906 16.4349 15.537 18.6554 15.537H20.4094V19.0922H23.2495V15.537H28.0296V19.0922H30.8697V15.537H32.6237C34.8442 15.537 36.9513 14.6906 38.5562 13.1559L40.3408 11.4478C40.9055 10.906 40.9259 10.0074 40.3828 9.44012Z" fill="#41A2EB"/>
</svg>
