<svg width="70" height="70" viewBox="0 0 70 70" fill="none" xmlns="http://www.w3.org/2000/svg">
<path d="M41.9277 42.4526V37.9113C41.9277 35.3452 44.0081 33.2647 46.5743 33.2647H52.6415V29.9378C52.6415 28.0667 51.1247 26.5499 49.2535 26.5499V24.6283C49.2535 22.2179 47.2815 20.2444 44.8696 20.2444H39.8442L37.0504 16.3523C36.7785 15.9735 36.25 15.8864 35.8712 16.1583L30.1782 20.2444H20.3824C18.0422 20.2444 16.1039 22.0972 16.0107 24.4114C16.0046 24.5794 16 24.6817 16 24.694V50.7591C16 52.9556 17.7811 54.7352 19.9761 54.7352H48.6639C50.8605 54.7352 52.64 52.9541 52.64 50.7591V47.0977H46.5728C44.0081 47.0992 41.9277 45.0188 41.9277 42.4526ZM44.8696 22.699C45.9328 22.699 46.7989 23.5621 46.7989 24.6283V26.5575H44.3747L41.6069 22.7006H44.8696V22.699ZM41.3533 26.5575H25.5942L35.9949 19.0926L41.3533 26.5575ZM20.3824 22.699H26.7581L21.3829 26.556H20.3808C19.3146 26.556 18.4516 25.6899 18.4516 24.6267C18.4547 23.5621 19.3177 22.699 20.3824 22.699Z" fill="#538FEA"/>
<path d="M54.0073 35.0234H46.5806C44.9813 35.0234 43.6875 36.3172 43.6875 37.9165V42.4577C43.6875 44.057 44.9813 45.3508 46.5806 45.3508H54.0073C54.5541 45.3508 55.0001 44.9048 55.0001 44.3579V36.0163C55.0001 35.4695 54.5541 35.0234 54.0073 35.0234ZM48.134 42.3035C46.9625 42.3035 46.0154 41.3564 46.0154 40.1894C46.0154 39.0178 46.9625 38.0708 48.134 38.0708C49.3011 38.0708 50.2481 39.0178 50.2481 40.1894C50.2481 41.3564 49.3011 42.3035 48.134 42.3035Z" fill="#41A2EB"/>
</svg>
